<svg width="512" height="512" viewBox="0 0 512 512" fill="none" xmlns="http://www.w3.org/2000/svg">
<path d="M196 75H166V135H196V75Z" fill="#3C3A41"/>
<path d="M436 75H406V135H436V75Z" fill="#2B292C"/>
<path d="M496 75C496 83.399 489.401 90 481 90H61C52.599 90 46 83.399 46 75C46 66.599 52.599 60 61 60H481C489.401 60 496 66.599 496 75Z" fill="#57555C"/>
<path d="M496 75C496 83.399 489.401 90 481 90H301V60H481C489.401 60 496 66.599 496 75Z" fill="#3C3A41"/>
<path d="M451 120H151C142.599 120 136 126.599 136 135V375C136 383.399 142.599 390 151 390H451C459.401 390 466 383.399 466 375V135C466 126.599 459.401 120 451 120Z" fill="#FAAC7E"/>
<path d="M466 135V375C466 383.399 459.401 390 451 390H301V120H451C459.401 120 466 126.599 466 135Z" fill="#FAAC7E"/>
<path d="M361 225H331V195C331 186.599 324.401 180 316 180H286C277.599 180 271 186.599 271 195V225H241C232.599 225 226 231.599 226 240V270C226 278.399 232.599 285 241 285H271V315C271 323.399 277.599 330 286 330H316C324.401 330 331 323.399 331 315V285H361C369.401 285 376 278.399 376 270V240C376 231.599 369.401 225 361 225Z" fill="white"/>
<path d="M376 240V270C376 278.399 369.401 285 361 285H331V315C331 323.399 324.401 330 316 330H301V180H316C324.401 180 331 186.599 331 195V225H361C369.401 225 376 231.599 376 240Z" fill="white"/>
<path d="M76 30V497C76 505.399 69.401 512 61 512H31C22.599 512 16 505.399 16 497V30C16 13.5 29.5 0 46 0C62.5 0 76 13.5 76 30Z" fill="#FF9E65"/>
<path d="M76 30V497C76 505.399 69.401 512 61 512H46V0C62.5 0 76 13.5 76 30Z" fill="#FAAC7E"/>
</svg>
