<?xml version="1.0" encoding="UTF-8" standalone="no"?> <svg width="64" height="64" viewBox="0 0 64 64" fill="none" xmlns="http://www.w3.org/2000/svg">
<path d="M47.9199 29.59C47.5237 25.643 45.6754 21.9839 42.7337 19.3227C39.792 16.6615 35.9667 15.188 31.9999 15.188C28.0331 15.188 24.2077 16.6615 21.266 19.3227C18.3243 21.9839 16.4761 25.643 16.0799 29.59L13.5299 52C13.5128 52.1396 13.5253 52.2812 13.5667 52.4156C13.608 52.55 13.6773 52.6742 13.7699 52.78C13.8636 52.8867 13.9789 52.9721 14.1082 53.0308C14.2376 53.0894 14.3779 53.1198 14.5199 53.12H49.5199C49.6619 53.1198 49.8022 53.0894 49.9315 53.0308C50.0608 52.9721 50.1762 52.8867 50.2699 52.78C50.3625 52.6742 50.4317 52.55 50.4731 52.4156C50.5144 52.2812 50.527 52.1396 50.5099 52L47.9199 29.59Z" fill="#B72026"/>
<path d="M32 3C31.7348 3 31.4804 3.10536 31.2929 3.29289C31.1054 3.48043 31 3.73478 31 4V9C31 9.26522 31.1054 9.51957 31.2929 9.70711C31.4804 9.89464 31.7348 10 32 10C32.2652 10 32.5196 9.89464 32.7071 9.70711C32.8946 9.51957 33 9.26522 33 9V4C33 3.73478 32.8946 3.48043 32.7071 3.29289C32.5196 3.10536 32.2652 3 32 3V3Z" fill="#B72026"/>
<path d="M49.4897 10.83L45.9197 14.4C45.782 14.5404 45.6889 14.7182 45.6518 14.9112C45.6147 15.1043 45.6353 15.304 45.711 15.4854C45.7868 15.6668 45.9143 15.8218 46.0777 15.9311C46.2411 16.0404 46.4331 16.0992 46.6297 16.1C46.7613 16.1007 46.8917 16.0755 47.0136 16.0258C47.1354 15.976 47.2462 15.9027 47.3397 15.81L50.9097 12.25C51.0029 12.1567 51.0769 12.0461 51.1273 11.9242C51.1778 11.8024 51.2037 11.6718 51.2037 11.54C51.2037 11.4081 51.1778 11.2776 51.1273 11.1557C51.0769 11.0339 51.0029 10.9232 50.9097 10.83C50.8164 10.7367 50.7057 10.6628 50.5839 10.6123C50.4621 10.5619 50.3315 10.5359 50.1997 10.5359C50.0678 10.5359 49.9372 10.5619 49.8154 10.6123C49.6936 10.6628 49.5829 10.7367 49.4897 10.83V10.83Z" fill="#B72026"/>
<path d="M57.7399 28.74H52.6899C52.4247 28.74 52.1704 28.8453 51.9828 29.0329C51.7953 29.2204 51.6899 29.4748 51.6899 29.74C51.6899 30.0052 51.7953 30.2596 51.9828 30.4471C52.1704 30.6346 52.4247 30.74 52.6899 30.74H57.7399C58.0052 30.74 58.2595 30.6346 58.447 30.4471C58.6346 30.2596 58.7399 30.0052 58.7399 29.74C58.7399 29.4748 58.6346 29.2204 58.447 29.0329C58.2595 28.8453 58.0052 28.74 57.7399 28.74V28.74Z" fill="#B72026"/>
<path d="M11.3098 28.74H6.25977C5.99455 28.74 5.74019 28.8453 5.55266 29.0329C5.36512 29.2204 5.25977 29.4748 5.25977 29.74C5.25977 30.0052 5.36512 30.2596 5.55266 30.4471C5.74019 30.6346 5.99455 30.74 6.25977 30.74H11.3098C11.575 30.74 11.8293 30.6346 12.0169 30.4471C12.2044 30.2596 12.3098 30.0052 12.3098 29.74C12.3098 29.4748 12.2044 29.2204 12.0169 29.0329C11.8293 28.8453 11.575 28.74 11.3098 28.74V28.74Z" fill="#B72026"/>
<path d="M14.51 10.83C14.3217 10.6417 14.0663 10.5359 13.8 10.5359C13.5337 10.5359 13.2783 10.6417 13.09 10.83C12.9017 11.0183 12.7959 11.2737 12.7959 11.54C12.7959 11.8063 12.9017 12.0617 13.09 12.25L16.66 15.81C16.7534 15.9027 16.8642 15.976 16.9861 16.0258C17.1079 16.0755 17.2384 16.1007 17.37 16.1C17.5666 16.0992 17.7585 16.0404 17.9219 15.9311C18.0853 15.8218 18.2129 15.6668 18.2886 15.4854C18.3644 15.304 18.385 15.1043 18.3479 14.9112C18.3108 14.7182 18.2176 14.5404 18.08 14.4L14.51 10.83Z" fill="#B72026"/>
<path d="M39 29.6101C37.5687 29.6124 36.1641 29.9986 34.9329 30.7286C33.7017 31.4585 32.6888 32.5054 32 33.7601C31.3112 32.5054 30.2983 31.4585 29.0671 30.7286C27.8359 29.9986 26.4313 29.6124 25 29.6101C24.7348 29.6101 24.4804 29.7155 24.2929 29.903C24.1054 30.0905 24 30.3449 24 30.6101V44.6101C24 44.8753 24.1054 45.1297 24.2929 45.3172C24.4804 45.5048 24.7348 45.6101 25 45.6101C26.1374 45.6062 27.2609 45.3597 28.2955 44.8873C29.3302 44.4148 30.2522 43.7271 31 42.8701V52.1001C31 52.3653 31.1054 52.6197 31.2929 52.8072C31.4804 52.9947 31.7348 53.1001 32 53.1001C32.2652 53.1001 32.5196 52.9947 32.7071 52.8072C32.8946 52.6197 33 52.3653 33 52.1001V42.9201C33.7478 43.7771 34.6698 44.4648 35.7045 44.9373C36.7391 45.4097 37.8626 45.6562 39 45.6601C39.2652 45.6601 39.5196 45.5548 39.7071 45.3672C39.8946 45.1797 40 44.9253 40 44.6601V30.6601C40.0068 30.5246 39.9859 30.3892 39.9387 30.2621C39.8915 30.1349 39.8189 30.0187 39.7254 29.9205C39.6318 29.8222 39.5193 29.7441 39.3946 29.6907C39.2699 29.6374 39.1356 29.6099 39 29.6101Z" fill="#F8F8F8"/>
<path d="M48.4099 51.1001H15.5899C13.2303 51.1027 10.9681 52.0413 9.29961 53.7098C7.63111 55.3783 6.69259 57.6405 6.68994 60.0001C6.68994 60.2653 6.7953 60.5197 6.98283 60.7072C7.17037 60.8947 7.42472 61.0001 7.68994 61.0001H56.3099C56.5752 61.0001 56.8295 60.8947 57.017 60.7072C57.2046 60.5197 57.3099 60.2653 57.3099 60.0001C57.3073 57.6405 56.3688 55.3783 54.7003 53.7098C53.0318 52.0413 50.7696 51.1027 48.4099 51.1001Z" fill="#07485E"/>
</svg>
