<svg width="64" height="64" viewBox="0 0 64 64" fill="none" xmlns="http://www.w3.org/2000/svg">
<path d="M24.5 9.375H20.75V16.875H24.5V9.375Z" fill="white"/>
<path d="M54.5 9.375H50.75V16.875H54.5V9.375Z" fill="white"/>
<path d="M62 9.375C62 10.4249 61.1751 11.25 60.125 11.25H7.625C6.57487 11.25 5.75 10.4249 5.75 9.375C5.75 8.32487 6.57487 7.5 7.625 7.5H60.125C61.1751 7.5 62 8.32487 62 9.375Z" fill="white"/>
<path d="M62 9.375C62 10.4249 61.1751 11.25 60.125 11.25H37.625V7.5H60.125C61.1751 7.5 62 8.32487 62 9.375Z" fill="white"/>
<path d="M56.375 15H18.875C17.8249 15 17 15.8249 17 16.875V46.875C17 47.9249 17.8249 48.75 18.875 48.75H56.375C57.4251 48.75 58.25 47.9249 58.25 46.875V16.875C58.25 15.8249 57.4251 15 56.375 15Z" fill="white"/>
<path d="M58.25 16.875V46.875C58.25 47.9249 57.4251 48.75 56.375 48.75H37.625V15H56.375C57.4251 15 58.25 15.8249 58.25 16.875Z" fill="white"/>
<path d="M45.125 28.125H41.375V24.375C41.375 23.3249 40.5501 22.5 39.5 22.5H35.75C34.6999 22.5 33.875 23.3249 33.875 24.375V28.125H30.125C29.0749 28.125 28.25 28.9499 28.25 30V33.75C28.25 34.7999 29.0749 35.625 30.125 35.625H33.875V39.375C33.875 40.4249 34.6999 41.25 35.75 41.25H39.5C40.5501 41.25 41.375 40.4249 41.375 39.375V35.625H45.125C46.1751 35.625 47 34.7999 47 33.75V30C47 28.9499 46.1751 28.125 45.125 28.125Z" fill="#FAAC7E"/>
<path d="M47 30V33.75C47 34.7999 46.1751 35.625 45.125 35.625H41.375V39.375C41.375 40.4249 40.5501 41.25 39.5 41.25H37.625V22.5H39.5C40.5501 22.5 41.375 23.3249 41.375 24.375V28.125H45.125C46.1751 28.125 47 28.9499 47 30Z" fill="#FAAC7E"/>
<path d="M9.5 3.75V62.125C9.5 63.1749 8.67513 64 7.625 64H3.875C2.82487 64 2 63.1749 2 62.125V3.75C2 1.6875 3.6875 0 5.75 0C7.8125 0 9.5 1.6875 9.5 3.75Z" fill="white"/>
<path d="M9.5 3.75V62.125C9.5 63.1749 8.67513 64 7.625 64H5.75V0C7.8125 0 9.5 1.6875 9.5 3.75Z" fill="white"/>
</svg>
