<svg width="111" height="48" viewBox="0 0 111 48" fill="none" xmlns="http://www.w3.org/2000/svg">
<g filter="url(#filter0_d_304_8)">
<g clip-path="url(#clip0_304_8)">
<rect x="4" width="103" height="40" rx="20" fill="url(#paint0_linear_304_8)"/>
<path d="M53.176 15.088H55.178L58.328 22.592H58.384L61.506 15.088H63.508V25H62.164V16.852H62.136L58.79 25H57.894L54.548 16.852H54.52V25H53.176V15.088ZM65.6675 19.176C66.0222 18.8493 66.4328 18.6067 66.8995 18.448C67.3662 18.28 67.8328 18.196 68.2995 18.196C68.7848 18.196 69.2002 18.2567 69.5455 18.378C69.9002 18.4993 70.1895 18.6627 70.4135 18.868C70.6375 19.0733 70.8008 19.3113 70.9035 19.582C71.0155 19.8433 71.0715 20.1187 71.0715 20.408V23.796C71.0715 24.0293 71.0762 24.244 71.0855 24.44C71.0948 24.636 71.1088 24.8227 71.1275 25H70.0075C69.9795 24.664 69.9655 24.328 69.9655 23.992H69.9375C69.6575 24.4213 69.3262 24.7247 68.9435 24.902C68.5608 25.0793 68.1175 25.168 67.6135 25.168C67.3055 25.168 67.0115 25.126 66.7315 25.042C66.4515 24.958 66.2042 24.832 65.9895 24.664C65.7842 24.496 65.6208 24.2907 65.4995 24.048C65.3782 23.796 65.3175 23.5067 65.3175 23.18C65.3175 22.7507 65.4108 22.3913 65.5975 22.102C65.7935 21.8127 66.0548 21.5793 66.3815 21.402C66.7175 21.2153 67.1048 21.0847 67.5435 21.01C67.9915 20.926 68.4675 20.884 68.9715 20.884H69.8955V20.604C69.8955 20.436 69.8628 20.268 69.7975 20.1C69.7322 19.932 69.6342 19.7827 69.5035 19.652C69.3728 19.512 69.2095 19.4047 69.0135 19.33C68.8175 19.246 68.5842 19.204 68.3135 19.204C68.0708 19.204 67.8562 19.2273 67.6695 19.274C67.4922 19.3207 67.3288 19.3813 67.1795 19.456C67.0302 19.5213 66.8948 19.6007 66.7735 19.694C66.6522 19.7873 66.5355 19.876 66.4235 19.96L65.6675 19.176ZM69.2235 21.808C68.9248 21.808 68.6168 21.8267 68.2995 21.864C67.9915 21.892 67.7068 21.9527 67.4455 22.046C67.1935 22.1393 66.9835 22.27 66.8155 22.438C66.6568 22.606 66.5775 22.8207 66.5775 23.082C66.5775 23.4647 66.7035 23.74 66.9555 23.908C67.2168 24.076 67.5668 24.16 68.0055 24.16C68.3508 24.16 68.6448 24.104 68.8875 23.992C69.1302 23.8707 69.3262 23.7167 69.4755 23.53C69.6248 23.3433 69.7322 23.138 69.7975 22.914C69.8628 22.6807 69.8955 22.452 69.8955 22.228V21.808H69.2235ZM72.9973 18.364H74.2573V25H72.9973V18.364ZM72.7033 15.984C72.7033 15.732 72.7919 15.5173 72.9693 15.34C73.1559 15.1533 73.3753 15.06 73.6273 15.06C73.8793 15.06 74.0939 15.1533 74.2713 15.34C74.4579 15.5173 74.5513 15.732 74.5513 15.984C74.5513 16.236 74.4579 16.4553 74.2713 16.642C74.0939 16.8193 73.8793 16.908 73.6273 16.908C73.3753 16.908 73.1559 16.8193 72.9693 16.642C72.7919 16.4553 72.7033 16.236 72.7033 15.984ZM76.3605 14.416H77.6205V25H76.3605V14.416Z" fill="white"/>
<g clip-path="url(#clip1_304_8)">
<path fill-rule="evenodd" clip-rule="evenodd" d="M44.1 12H28.9C27.855 12 27 12.9 27 14V26C27 27.1 27.855 28 28.9 28H44.1C45.145 28 46 27.1 46 26V14C46 12.9 45.145 12 44.1 12ZM43.72 16.25L37.507 20.34C36.8895 20.75 36.1105 20.75 35.493 20.34L29.28 16.25C29.0425 16.09 28.9 15.82 28.9 15.53C28.9 14.86 29.5935 14.46 30.135 14.81L36.5 19L42.865 14.81C43.4065 14.46 44.1 14.86 44.1 15.53C44.1 15.82 43.9575 16.09 43.72 16.25Z" fill="#FFF9F9"/>
</g>
</g>
</g>
<defs>
<filter id="filter0_d_304_8" x="0" y="0" width="111" height="48" filterUnits="userSpaceOnUse" color-interpolation-filters="sRGB">
<feFlood flood-opacity="0" result="BackgroundImageFix"/>
<feColorMatrix in="SourceAlpha" type="matrix" values="0 0 0 0 0 0 0 0 0 0 0 0 0 0 0 0 0 0 127 0" result="hardAlpha"/>
<feOffset dy="4"/>
<feGaussianBlur stdDeviation="2"/>
<feComposite in2="hardAlpha" operator="out"/>
<feColorMatrix type="matrix" values="0 0 0 0 0 0 0 0 0 0 0 0 0 0 0 0 0 0 0.25 0"/>
<feBlend mode="normal" in2="BackgroundImageFix" result="effect1_dropShadow_304_8"/>
<feBlend mode="normal" in="SourceGraphic" in2="effect1_dropShadow_304_8" result="shape"/>
</filter>
<linearGradient id="paint0_linear_304_8" x1="58.4261" y1="17" x2="68.3217" y2="41.2174" gradientUnits="userSpaceOnUse">
<stop offset="0.25" stop-color="#A649DA"/>
<stop offset="1" stop-color="#A540DD"/>
</linearGradient>
<clipPath id="clip0_304_8">
<rect x="4" width="103" height="40" rx="20" fill="white"/>
</clipPath>
<clipPath id="clip1_304_8">
<rect width="19" height="16" fill="white" transform="translate(27 12)"/>
</clipPath>
</defs>
</svg>
