<svg width="111" height="48" viewBox="0 0 111 48" fill="none" xmlns="http://www.w3.org/2000/svg">
<g filter="url(#filter0_d_206_290)">
<g clip-path="url(#clip0_206_290)">
<rect x="4" width="103" height="40" rx="20" fill="url(#paint0_linear_206_290)"/>
<path d="M57.321 12.964H58.8L63.951 25H62.047L60.84 22.025H55.111L53.921 25H52.017L57.321 12.964ZM60.245 20.597L58.001 15.072H57.967L55.689 20.597H60.245ZM65.1257 16.942H66.6557V18.183H66.6897C66.7917 17.9677 66.9277 17.775 67.0977 17.605C67.2677 17.4237 67.4547 17.2707 67.6587 17.146C67.8741 17.0213 68.1064 16.925 68.3557 16.857C68.6051 16.7777 68.8544 16.738 69.1037 16.738C69.3531 16.738 69.5797 16.772 69.7837 16.84L69.7157 18.489C69.5911 18.455 69.4664 18.4267 69.3417 18.404C69.2171 18.3813 69.0924 18.37 68.9677 18.37C68.2197 18.37 67.6474 18.5797 67.2507 18.999C66.8541 19.4183 66.6557 20.07 66.6557 20.954V25H65.1257V16.942ZM71.4517 17.928C71.8824 17.5313 72.3811 17.2367 72.9477 17.044C73.5144 16.84 74.0811 16.738 74.6477 16.738C75.2371 16.738 75.7414 16.8117 76.1607 16.959C76.5914 17.1063 76.9427 17.3047 77.2147 17.554C77.4867 17.8033 77.6851 18.0923 77.8097 18.421C77.9457 18.7383 78.0137 19.0727 78.0137 19.424V23.538C78.0137 23.8213 78.0194 24.082 78.0307 24.32C78.0421 24.558 78.0591 24.7847 78.0817 25H76.7217C76.6877 24.592 76.6707 24.184 76.6707 23.776H76.6367C76.2967 24.2973 75.8944 24.6657 75.4297 24.881C74.9651 25.0963 74.4267 25.204 73.8147 25.204C73.4407 25.204 73.0837 25.153 72.7437 25.051C72.4037 24.949 72.1034 24.796 71.8427 24.592C71.5934 24.388 71.3951 24.1387 71.2477 23.844C71.1004 23.538 71.0267 23.1867 71.0267 22.79C71.0267 22.2687 71.1401 21.8323 71.3667 21.481C71.6047 21.1297 71.9221 20.8463 72.3187 20.631C72.7267 20.4043 73.1971 20.2457 73.7297 20.155C74.2737 20.053 74.8517 20.002 75.4637 20.002H76.5857V19.662C76.5857 19.458 76.5461 19.254 76.4667 19.05C76.3874 18.846 76.2684 18.6647 76.1097 18.506C75.9511 18.336 75.7527 18.2057 75.5147 18.115C75.2767 18.013 74.9934 17.962 74.6647 17.962C74.3701 17.962 74.1094 17.9903 73.8827 18.047C73.6674 18.1037 73.4691 18.1773 73.2877 18.268C73.1064 18.3473 72.9421 18.4437 72.7947 18.557C72.6474 18.6703 72.5057 18.778 72.3697 18.88L71.4517 17.928ZM75.7697 21.124C75.4071 21.124 75.0331 21.1467 74.6477 21.192C74.2737 21.226 73.9281 21.2997 73.6107 21.413C73.3047 21.5263 73.0497 21.685 72.8457 21.889C72.6531 22.093 72.5567 22.3537 72.5567 22.671C72.5567 23.1357 72.7097 23.47 73.0157 23.674C73.3331 23.878 73.7581 23.98 74.2907 23.98C74.7101 23.98 75.0671 23.912 75.3617 23.776C75.6564 23.6287 75.8944 23.4417 76.0757 23.215C76.2571 22.9883 76.3874 22.739 76.4667 22.467C76.5461 22.1837 76.5857 21.906 76.5857 21.634V21.124H75.7697Z" fill="white"/>
<path d="M38.3667 31.6667C38.2238 31.6667 38.0808 31.6608 37.9373 31.6503C35.5779 31.4703 33.319 30.6203 31.4262 29.2003C28.5362 27.0327 25.9692 24.4653 23.802 21.575C22.3818 19.6823 21.5318 17.4233 21.352 15.0638C21.2898 14.2627 21.402 13.4576 21.6807 12.704C21.9594 11.9503 22.3982 11.266 22.9667 10.6982L24.4285 9.23459C25.0058 8.65827 25.7883 8.33458 26.604 8.33458C27.4198 8.33458 28.2023 8.65827 28.7796 9.23459L30.1014 10.557C30.3871 10.8427 30.6138 11.1819 30.7684 11.5551C30.9231 11.9284 31.0026 12.3285 31.0026 12.7325C31.0026 13.1366 30.9231 13.5367 30.7684 13.9099C30.6138 14.2832 30.3871 14.6224 30.1014 14.9081L29.3431 15.6664C29.0317 15.9791 28.8378 16.3899 28.7944 16.8291C28.7509 17.2683 28.8604 17.709 29.1045 18.0767C30.6394 20.3833 32.618 22.3613 34.925 23.8955C35.2929 24.1392 35.7335 24.2485 36.1726 24.205C36.6117 24.1615 37.0224 23.9679 37.3353 23.6569L38.0937 22.8986C38.3793 22.6129 38.7185 22.3862 39.0918 22.2316C39.4651 22.077 39.8652 21.9974 40.2692 21.9974C40.6732 21.9974 41.0733 22.077 41.4466 22.2316C41.8199 22.3862 42.1591 22.6129 42.4448 22.8986L43.7672 24.2204C44.0529 24.5061 44.2795 24.8453 44.4342 25.2186C44.5888 25.5918 44.6684 25.9919 44.6684 26.396C44.6684 26.8 44.5888 27.2001 44.4342 27.5734C44.2795 27.9466 44.0529 28.2858 43.7672 28.5715L42.3018 30.0333C41.7854 30.5508 41.172 30.9614 40.4968 31.2417C39.8216 31.5219 39.0978 31.6664 38.3667 31.6667ZM26.6038 9.5C26.353 9.49968 26.1045 9.54888 25.8728 9.64478C25.6411 9.74068 25.4306 9.88139 25.2533 10.0588L23.7898 11.523C23.3403 11.972 22.9935 12.513 22.7731 13.1088C22.5526 13.7047 22.4639 14.3412 22.5128 14.9746C22.6767 17.1128 23.4475 19.1598 24.7348 20.875C26.8358 23.676 29.324 26.1643 32.125 28.2652C33.8401 29.5527 35.8872 30.3236 38.0254 30.4872C38.6588 30.5353 39.295 30.4462 39.8907 30.2258C40.4864 30.0054 41.0275 29.659 41.477 29.2102L42.9406 27.7467C43.2988 27.3884 43.5 26.9026 43.5 26.396C43.5 25.8894 43.2988 25.4035 42.9406 25.0452L41.6182 23.7234C41.2545 23.3757 40.7708 23.1817 40.2678 23.1817C39.7647 23.1817 39.281 23.3757 38.9173 23.7234L38.159 24.4817C37.6552 24.9832 36.9938 25.2953 36.2865 25.3654C35.5791 25.4354 34.8692 25.2591 34.2769 24.8662C31.8421 23.2465 29.7541 21.1585 28.1344 18.7237C27.7414 18.1313 27.565 17.4215 27.635 16.7141C27.7051 16.0068 28.0173 15.3453 28.5188 14.8416L29.2772 14.0832C29.6353 13.7251 29.8365 13.2393 29.8365 12.7328C29.8365 12.2263 29.6353 11.7406 29.2772 11.3824L27.9548 10.0594C27.7775 9.88185 27.5668 9.74103 27.335 9.64503C27.1032 9.54903 26.8547 9.49974 26.6038 9.5Z" fill="white"/>
</g>
</g>
<defs>
<filter id="filter0_d_206_290" x="0" y="0" width="111" height="48" filterUnits="userSpaceOnUse" color-interpolation-filters="sRGB">
<feFlood flood-opacity="0" result="BackgroundImageFix"/>
<feColorMatrix in="SourceAlpha" type="matrix" values="0 0 0 0 0 0 0 0 0 0 0 0 0 0 0 0 0 0 127 0" result="hardAlpha"/>
<feOffset dy="4"/>
<feGaussianBlur stdDeviation="2"/>
<feComposite in2="hardAlpha" operator="out"/>
<feColorMatrix type="matrix" values="0 0 0 0 0 0 0 0 0 0 0 0 0 0 0 0 0 0 0.25 0"/>
<feBlend mode="normal" in2="BackgroundImageFix" result="effect1_dropShadow_206_290"/>
<feBlend mode="normal" in="SourceGraphic" in2="effect1_dropShadow_206_290" result="shape"/>
</filter>
<linearGradient id="paint0_linear_206_290" x1="58.4261" y1="17" x2="68.3217" y2="41.2174" gradientUnits="userSpaceOnUse">
<stop offset="0.25" stop-color="#30C04F"/>
<stop offset="1" stop-color="#10B734" stop-opacity="0.896786"/>
</linearGradient>
<clipPath id="clip0_206_290">
<rect x="4" width="103" height="40" rx="20" fill="white"/>
</clipPath>
</defs>
</svg>
