<svg width="45" height="45" viewBox="0 0 45 45" fill="none" xmlns="http://www.w3.org/2000/svg">
<circle cx="22.5" cy="22.5" r="22.5" fill="#E6C0D4"/>
<g filter="url(#filter0_d_308_2)">
<path d="M14.8382 18.6008L15.8584 19.6206C16.0788 19.8411 16.3404 20.0159 16.6284 20.1352C16.9164 20.2545 17.225 20.3159 17.5367 20.3159C17.8485 20.3159 18.1571 20.2545 18.4451 20.1352C18.7331 20.0159 18.9947 19.8411 19.2151 19.6206L19.8002 19.0355C20.0416 18.7956 20.3584 18.6462 20.6972 18.6127C21.0359 18.5792 21.3759 18.6635 21.6597 18.8515C23.4391 20.0357 24.9651 21.5622 26.1487 23.3421C26.337 23.6259 26.4215 23.9659 26.388 24.3048C26.3545 24.6436 26.2049 24.9605 25.9647 25.2018L25.3796 25.7869C25.1592 26.0073 24.9843 26.2689 24.865 26.5569C24.7458 26.8449 24.6844 27.1536 24.6844 27.4653C24.6844 27.7771 24.7458 28.0858 24.865 28.3737C24.9843 28.6617 25.1592 28.9234 25.3796 29.1438L26.3994 30.1628C26.8448 30.6074 27.4484 30.8571 28.0778 30.8571C28.7071 30.8571 29.3107 30.6074 29.7561 30.1628L30.8839 29.0336C31.3226 28.5955 31.6611 28.0676 31.8763 27.4861C32.0914 26.9046 32.178 26.2835 32.13 25.6653C31.9912 23.8449 31.3353 22.102 30.2395 20.6418C28.5677 18.4124 26.5876 16.432 24.3585 14.76C22.8982 13.6644 21.1555 13.0086 19.3353 12.8697C19.2246 12.8616 19.1143 12.8571 19.0041 12.8571C18.4399 12.8573 17.8813 12.9686 17.3602 13.1849C16.8391 13.4011 16.3658 13.7179 15.9673 14.1173L14.8382 15.2465C14.6177 15.4669 14.4429 15.7286 14.3236 16.0166C14.2043 16.3046 14.1429 16.6133 14.1429 16.925C14.1429 17.2367 14.2043 17.5454 14.3236 17.8334C14.4429 18.1214 14.6177 18.3831 14.8382 18.6035V18.6008Z" fill="white"/>
</g>
<defs>
<filter id="filter0_d_308_2" x="10.1429" y="12.8571" width="26" height="26" filterUnits="userSpaceOnUse" color-interpolation-filters="sRGB">
<feFlood flood-opacity="0" result="BackgroundImageFix"/>
<feColorMatrix in="SourceAlpha" type="matrix" values="0 0 0 0 0 0 0 0 0 0 0 0 0 0 0 0 0 0 127 0" result="hardAlpha"/>
<feOffset dy="4"/>
<feGaussianBlur stdDeviation="2"/>
<feComposite in2="hardAlpha" operator="out"/>
<feColorMatrix type="matrix" values="0 0 0 0 0 0 0 0 0 0 0 0 0 0 0 0 0 0 0.25 0"/>
<feBlend mode="normal" in2="BackgroundImageFix" result="effect1_dropShadow_308_2"/>
<feBlend mode="normal" in="SourceGraphic" in2="effect1_dropShadow_308_2" result="shape"/>
</filter>
</defs>
</svg>
