<?xml version="1.0" encoding="UTF-8"?>
<!DOCTYPE svg PUBLIC "-//W3C//DTD SVG 1.1//EN" "http://www.w3.org/Graphics/SVG/1.1/DTD/svg11.dtd">
<!-- Creator: CorelDRAW -->
<svg xmlns="http://www.w3.org/2000/svg" xml:space="preserve" width="1.70666in" height="1.70666in" version="1.1" style="shape-rendering:geometricPrecision; text-rendering:geometricPrecision; image-rendering:optimizeQuality; fill-rule:evenodd; clip-rule:evenodd"
viewBox="0 0 1706.66 1706.66"
 xmlns:xlink="http://www.w3.org/1999/xlink"
 xmlns:xodm="http://www.corel.com/coreldraw/odm/2003">
 <defs>
  <style type="text/css">
   <![CDATA[
    .fil0 {fill:black}
   ]]>
  </style>
 </defs>
 <g id="Layer_x0020_1">
  <metadata id="CorelCorpID_0Corel-Layer"/>
  <path class="fil0" d="M1111.42 1552.04l-1000.69 0c-11.21,0 -20.18,-9.11 -20.18,-20.18l0 -536.93c0,-11.07 8.97,-20.18 20.18,-20.18l1000.69 0c11.07,0 20.18,9.11 20.18,20.18l0 536.93c0,11.21 -9.11,20.18 -20.18,20.18zm-619.61 -402.66l-292.36 0c-26.57,0 -26.57,-40.37 0,-40.37l292.22 0c26.59,0 26.48,40.37 0.14,40.37zm419.61 55.92c-42.04,0 -76.1,-34.2 -76.1,-76.1 0,-42.05 34.19,-76.11 76.1,-76.11 41.91,0 76.1,34.2 76.1,76.11 0,41.91 -34.06,76.1 -76.1,76.1zm-216.95 0c-41.91,0 -76.1,-34.2 -76.1,-76.1 0,-42.05 34.2,-76.11 76.1,-76.11 41.91,0 76.1,34.2 76.1,76.11 0,41.91 -34.06,76.1 -76.1,76.1zm-175.05 212.47l-292.22 0c-26.57,0 -26.57,-40.36 0,-40.36l292.22 0c26.63,0 26.48,40.36 0,40.36zm419.61 55.93c-41.91,0 -76.1,-34.2 -76.1,-76.11 0,-41.91 34.2,-76.1 76.1,-76.1 42.05,0 76.11,34.2 76.11,76.1 0,42.05 -34.06,76.11 -76.11,76.11zm-216.95 0c-41.91,0 -76.1,-34.2 -76.1,-76.11 0,-41.91 34.2,-76.1 76.1,-76.1 41.91,0 76.11,34.2 76.11,76.1 0,42.05 -34.06,76.11 -76.11,76.11z"/>
  <path class="fil0" d="M1033.07 831.94l-843.99 0c-39.94,0 -72.46,-32.51 -72.46,-72.46l0 -687.02c0,-39.94 32.51,-72.46 72.46,-72.46l843.99 0c39.94,0 72.46,32.51 72.46,72.46l0 687.02c0,39.95 -32.52,72.46 -72.46,72.46zm-422.01 -120.54c-118.41,-0.04 -274.85,-36.07 -376.82,-102.23 -27.09,-17.57 -35.61,-53.5 -19.34,-81.38l220.18 -377.43c23.65,-40.54 58.38,-29.43 89.91,-22.01 51.79,12.19 120.44,12.02 172.23,-0.03 31.56,-7.34 66.41,-18.36 89.98,22.04l220.17 377.43c16.25,27.86 7.69,63.9 -19.39,81.41 -102.4,66.24 -258.02,102.24 -376.93,102.2z"/>
  <path class="fil0" d="M707.5 1015.11l-181.5 0c-11.21,0 -20.18,-9.11 -20.18,-20.18l0 -183.17c0,-11.21 8.97,-20.18 20.18,-20.18l181.5 0c11.21,0 20.18,8.97 20.18,20.18l0 183.17c0,11.07 -9.11,20.18 -20.18,20.18z"/>
  <path class="fil0" d="M611.08 671.05c-204.76,-0.56 -348.84,-91.8 -354.87,-95.73 -9.11,-5.89 -11.91,-17.8 -6.44,-27.19l220.18 -377.43c14.7,-25.26 29.23,7.02 140.71,7.01 112.09,-0.02 126.99,-32.06 141.69,-7.01l220.17 377.43c5.46,9.39 2.52,21.3 -6.45,27.19 -6.16,3.93 -150.23,95.31 -354.99,95.73z"/>
  <path class="fil0" d="M1507.35 364.11l-221.3 0c-59.98,0 -108.76,-48.78 -108.76,-108.62l0 -35.6 438.82 0 0 35.6c-0.14,59.84 -48.91,108.62 -108.76,108.62zm-327.54 -184.58c14.33,-84.73 88.28,-149.54 177.01,-149.54l79.75 0c88.73,0 162.68,64.81 177.01,149.54l-433.77 0z"/>
  <path class="fil0" d="M1400.13 680.02c-70.3,0 -120.11,-48.66 -120.11,-113.1l0 -222.98c0,-11.21 9.11,-20.19 20.18,-20.19l192.85 0c11.07,0 20.18,8.97 20.18,20.19l0 222.98c0,62.37 -50.74,113.1 -113.1,113.1z"/>
  <path class="fil0" d="M1356.13 1611.24l0 -951.27c0,-48.72 74,-48.72 74,0l0 955.59c0.56,59.3 -97.04,91.63 -126.98,91.06 -148.39,-2.83 -132.95,-166.88 -160.7,-171.52 -9.31,-1.55 -68.02,10.78 -68.02,-36.75 0,-44.19 51.6,-37 74.14,-37 3.57,0 7.01,0.51 10.43,1.51 49.56,14.39 63.98,54.27 76.52,98.6 18.78,66.35 59.17,93.16 120.61,49.78z"/>
 </g>
</svg>
