<svg width="64" height="64" viewBox="0 0 64 64" fill="none" xmlns="http://www.w3.org/2000/svg">
<path d="M31.4038 56H8.84669C11.471 52.6688 12.8923 48.5483 12.8799 44.3076V8H47.6792V27.1465C47.6792 27.4117 47.7846 27.6661 47.9721 27.8536C48.1596 28.0411 48.414 28.1465 48.6792 28.1465C48.9444 28.1465 49.1988 28.0411 49.3863 27.8536C49.5738 27.6661 49.6792 27.4117 49.6792 27.1465V7C49.6792 6.86867 49.6534 6.73862 49.6031 6.61728C49.5529 6.49593 49.4792 6.38568 49.3864 6.29282C49.2935 6.19995 49.1833 6.12629 49.0619 6.07605C48.9406 6.02581 48.8105 5.99997 48.6792 6H11.8799C11.7486 5.99997 11.6185 6.02581 11.4972 6.07605C11.3758 6.12629 11.2656 6.19995 11.1727 6.29282C11.0798 6.38568 11.0062 6.49593 10.9559 6.61728C10.9057 6.73862 10.8799 6.86867 10.8799 7V44.3076C10.886 46.5344 10.4505 48.7402 9.59844 50.7975C8.74639 52.8548 7.49477 54.7226 5.91601 56.293C5.77615 56.4328 5.6809 56.611 5.6423 56.805C5.60371 56.9989 5.6235 57.2 5.69918 57.3827C5.77487 57.5654 5.90304 57.7216 6.06749 57.8315C6.23193 57.9414 6.42527 58 6.62305 58H31.4038C31.669 58 31.9234 57.8946 32.1109 57.7071C32.2985 57.5196 32.4038 57.2652 32.4038 57C32.4038 56.7348 32.2985 56.4804 32.1109 56.2929C31.9234 56.1054 31.669 56 31.4038 56Z" fill="black"/>
<path d="M41.7495 18.5957H18.8095C18.5443 18.5957 18.2899 18.7011 18.1024 18.8886C17.9149 19.0761 17.8095 19.3305 17.8095 19.5957C17.8095 19.8609 17.9149 20.1153 18.1024 20.3028C18.2899 20.4903 18.5443 20.5957 18.8095 20.5957H41.7495C42.0147 20.5957 42.2691 20.4903 42.4566 20.3028C42.6442 20.1153 42.7495 19.8609 42.7495 19.5957C42.7495 19.3305 42.6442 19.0761 42.4566 18.8886C42.2691 18.7011 42.0147 18.5957 41.7495 18.5957Z" fill="black"/>
<path d="M42.7495 26.3711C42.7495 26.2398 42.7237 26.1097 42.6735 25.9884C42.6232 25.867 42.5496 25.7568 42.4567 25.6639C42.3638 25.5711 42.2536 25.4974 42.1322 25.4472C42.0109 25.3969 41.8808 25.3711 41.7495 25.3711H18.8095C18.5443 25.3711 18.2899 25.4765 18.1024 25.664C17.9149 25.8515 17.8095 26.1059 17.8095 26.3711C17.8095 26.6363 17.9149 26.8907 18.1024 27.0782C18.2899 27.2657 18.5443 27.3711 18.8095 27.3711H41.7495C41.8808 27.3711 42.0109 27.3453 42.1322 27.2951C42.2536 27.2448 42.3638 27.1712 42.4567 27.0783C42.5496 26.9854 42.6232 26.8752 42.6735 26.7538C42.7237 26.6325 42.7495 26.5024 42.7495 26.3711Z" fill="black"/>
<path d="M32.7788 33.1465C32.7788 33.0152 32.753 32.8851 32.7028 32.7638C32.6525 32.6424 32.5789 32.5322 32.486 32.4393C32.3931 32.3464 32.2829 32.2728 32.1615 32.2225C32.0402 32.1723 31.9101 32.1464 31.7788 32.1465H18.8096C18.5444 32.1465 18.29 32.2518 18.1025 32.4394C17.9149 32.6269 17.8096 32.8813 17.8096 33.1465C17.8096 33.4117 17.9149 33.6661 18.1025 33.8536C18.29 34.0411 18.5444 34.1465 18.8096 34.1465H31.7788C31.9101 34.1465 32.0402 34.1207 32.1615 34.0704C32.2829 34.0202 32.3931 33.9465 32.486 33.8537C32.5789 33.7608 32.6525 33.6506 32.7028 33.5292C32.753 33.4079 32.7788 33.2778 32.7788 33.1465Z" fill="black"/>
<path d="M18.8096 38.9219C18.5444 38.9219 18.29 39.0272 18.1025 39.2148C17.9149 39.4023 17.8096 39.6567 17.8096 39.9219C17.8096 40.1871 17.9149 40.4414 18.1025 40.629C18.29 40.8165 18.5444 40.9219 18.8096 40.9219H26.9663C27.2315 40.9219 27.4859 40.8165 27.6734 40.629C27.861 40.4414 27.9663 40.1871 27.9663 39.9219C27.9663 39.6567 27.861 39.4023 27.6734 39.2148C27.4859 39.0272 27.2315 38.9219 26.9663 38.9219H18.8096Z" fill="black"/>
<path d="M54.5908 35.9326C52.9182 34.257 50.8172 33.0735 48.5174 32.5112C46.2176 31.949 43.8075 32.0298 41.5505 32.7447C39.2935 33.4596 37.2765 34.7812 35.7198 36.565C34.1631 38.3488 33.1267 40.5261 32.7238 42.8591L31.9292 42.0644C31.7417 41.8769 31.4874 41.7716 31.2222 41.7716C30.957 41.7716 30.7027 41.8769 30.5152 42.0644C30.3276 42.252 30.2223 42.5063 30.2223 42.7715C30.2223 43.0367 30.3276 43.291 30.5152 43.4785L32.8163 45.7795C33.0043 45.9666 33.2587 46.0717 33.524 46.0717C33.7892 46.0717 34.0437 45.9666 34.2317 45.7795L36.5332 43.4785C36.7208 43.291 36.8261 43.0367 36.8261 42.7715C36.8261 42.5063 36.7208 42.252 36.5332 42.0644C36.3457 41.8769 36.0914 41.7716 35.8262 41.7716C35.561 41.7716 35.3067 41.8769 35.1192 42.0644L34.8921 42.2915C35.507 39.9665 36.8723 37.9096 38.7762 36.4402C40.68 34.9708 43.0158 34.1712 45.4207 34.1656C47.8257 34.1599 50.1652 34.9485 52.0759 36.4089C53.9866 37.8693 55.3617 39.9198 55.9875 42.2418C56.6134 44.5639 56.4549 47.0277 55.5368 49.2505C54.6187 51.4732 52.9924 53.3307 50.9103 54.5343C48.8283 55.7379 46.407 56.2204 44.0226 55.9068C41.6382 55.5931 39.4241 54.5009 37.7242 52.7998C37.5367 52.6123 37.2823 52.5069 37.0171 52.5069C36.7519 52.5069 36.4976 52.6123 36.3101 52.7998C36.1226 52.9873 36.0172 53.2416 36.0172 53.5068C36.0172 53.772 36.1226 54.0263 36.3101 54.2139C38.7348 56.6361 42.0221 57.9963 45.4494 57.9954C48.8766 57.9946 52.1633 56.6327 54.5867 54.2092C57.0101 51.7857 58.3719 48.499 58.3727 45.0718C58.3735 41.6445 57.0131 38.3572 54.5908 35.9326Z" fill="black"/>
<path d="M45.4507 36.415C45.3194 36.415 45.1893 36.4408 45.068 36.4911C44.9466 36.5413 44.8364 36.615 44.7435 36.7078C44.6506 36.8007 44.577 36.9109 44.5267 37.0323C44.4765 37.1536 44.4506 37.2837 44.4507 37.415V45.0732C44.4522 45.3386 44.5577 45.5927 44.7445 45.7812L48.3686 49.4052C48.5566 49.5908 48.8102 49.6944 49.0743 49.6936C49.3384 49.6927 49.5914 49.5874 49.7781 49.4007C49.9649 49.214 50.0701 48.961 50.071 48.6969C50.0719 48.4329 49.9682 48.1792 49.7827 47.9912L46.4507 44.6592V37.415C46.4507 37.2837 46.4249 37.1536 46.3746 37.0323C46.3244 36.9109 46.2507 36.8007 46.1579 36.7078C46.065 36.615 45.9547 36.5413 45.8334 36.4911C45.7121 36.4408 45.582 36.415 45.4507 36.415Z" fill="black"/>
</svg>
