<?xml version="1.0" encoding="UTF-8"?>
<!DOCTYPE svg PUBLIC "-//W3C//DTD SVG 1.1//EN" "http://www.w3.org/Graphics/SVG/1.1/DTD/svg11.dtd">
<!-- Creator: CorelDRAW -->
<svg xmlns="http://www.w3.org/2000/svg" xml:space="preserve" width="1.70666in" height="1.70666in" version="1.1" style="shape-rendering:geometricPrecision; text-rendering:geometricPrecision; image-rendering:optimizeQuality; fill-rule:evenodd; clip-rule:evenodd"
viewBox="0 0 1707 1707"
 xmlns:xlink="http://www.w3.org/1999/xlink">
 <defs>
  <style type="text/css">
   <![CDATA[
    .fil0 {fill:black}
   ]]>
  </style>
 </defs>
 <g id="Layer_x0020_1">
  <metadata id="CorelCorpID_0Corel-Layer"/>
  <g id="_487948608">
   <g>
    <g>
     <path class="fil0" d="M1322 898c-50,0 -96,-27 -118,-70l-295 0c-9,0 -15,-4 -21,-11 -4,-7 -6,-16 -1,-24l98 -223c4,-9 13,-14 22,-14l199 0c22,-43 67,-71 117,-71 74,0 135,60 135,135 0,26 -7,50 -22,72 14,22 22,47 22,72 -2,75 -61,134 -136,134zm-376 -119l275 0c9,0 19,7 22,17 12,33 43,55 79,55 47,0 86,-39 86,-86 0,-21 -8,-40 -22,-55 -9,-10 -9,-22 0,-32 9,-13 22,-32 22,-57 0,-47 -39,-86 -86,-86 -35,0 -67,22 -79,56 -4,9 -13,15 -22,15l-199 0 -76 173zm-561 119c-74,0 -135,-59 -135,-134 0,-26 7,-51 21,-72 -14,-21 -21,-46 -21,-72 0,-74 60,-135 135,-135 48,0 94,28 118,71l400 0c9,0 16,4 21,11 4,7 6,15 1,24l-98 223c-4,8 -12,14 -22,14l-302 0c-24,43 -68,70 -118,70zm0 -363c-47,0 -86,39 -86,86 0,22 7,40 22,57 8,10 8,24 0,33 -14,15 -21,33 -21,56 0,47 39,86 86,86 35,0 67,-23 79,-56 4,-10 13,-15 22,-15l303 0 77 -175 -380 0c-9,0 -19,-5 -22,-15 -14,-35 -46,-57 -80,-57z"/>
    </g>
    <g>
     <path class="fil0" d="M1649 1281l-1590 0c-32,0 -58,-26 -58,-57l0 -1062c0,-33 25,-58 58,-58l1590 0c32,0 57,26 57,58l0 1062c0,32 -25,57 -57,57zm-1590 -1129c-6,0 -10,5 -10,10l0 1062c0,4 4,9 10,9l1590 0c4,0 9,-5 9,-9l0 -1062c0,-5 -5,-10 -9,-10l-1590 0z"/>
    </g>
    <g>
     <path class="fil0" d="M928 1500c-14,0 -25,-11 -25,-25l0 -217c0,-14 11,-25 25,-25 14,0 25,11 25,25l0 219c0,13 -11,23 -25,23zm-148 0c-14,0 -25,-11 -25,-25l0 -217c0,-14 11,-25 25,-25 14,0 25,11 25,25l0 219c-2,13 -13,23 -25,23z"/>
    </g>
    <g>
     <path class="fil0" d="M1176 1603l-644 0c-14,0 -25,-11 -25,-25 0,-70 55,-126 124,-126l443 0c69,0 125,56 125,126 1,14 -10,25 -23,25zm-615 -49l588 0c-10,-30 -39,-52 -72,-52l-444 0c-33,-2 -63,22 -72,52z"/>
    </g>
    <g>
     <path class="fil0" d="M179 390c-49,0 -90,-41 -90,-89 0,-50 41,-90 90,-90 49,0 89,40 89,90 0,48 -39,89 -89,89zm0 -131c-22,0 -41,20 -41,42 0,22 18,40 41,40 23,0 41,-18 41,-40 0,-24 -18,-42 -41,-42z"/>
    </g>
    <g>
     <path class="fil0" d="M1533 390c-49,0 -89,-41 -89,-89 0,-50 40,-90 89,-90 50,0 90,40 90,90 0,48 -40,89 -90,89zm0 -131c-22,0 -40,18 -40,42 0,22 18,40 40,40 23,0 41,-18 41,-40 0,-22 -18,-42 -41,-42z"/>
    </g>
    <g>
     <path class="fil0" d="M179 1174c-49,0 -90,-40 -90,-90 0,-48 41,-89 90,-89 49,0 89,41 89,89 0,50 -39,90 -89,90zm0 -130c-23,0 -41,18 -41,40 0,24 18,42 41,42 23,0 41,-18 41,-42 0,-22 -18,-40 -41,-40z"/>
    </g>
    <g>
     <path class="fil0" d="M1533 1174c-49,0 -89,-40 -89,-90 0,-48 40,-89 89,-89 50,0 90,41 90,89 0,50 -40,90 -90,90zm0 -130c-22,0 -40,18 -40,40 0,24 18,42 40,42 23,0 41,-18 41,-42 0,-22 -18,-40 -41,-40z"/>
    </g>
   </g>
  </g>
 </g>
</svg>
