<?xml version="1.0" encoding="UTF-8" standalone="no"?> <svg width="512" height="512" viewBox="0 0 512 512" fill="none" xmlns="http://www.w3.org/2000/svg">
<path d="M496 200C495.982 186.465 491.068 173.393 482.166 163.197C473.264 153.001 460.974 146.369 447.565 144.525C452.15 138.631 454.994 131.572 455.774 124.146C456.554 116.72 455.24 109.223 451.98 102.505C448.721 95.7873 443.645 90.116 437.329 86.1334C431.013 82.1508 423.708 80.0159 416.241 79.9703C408.774 79.9248 401.443 81.9704 395.079 85.8756C388.714 89.7809 383.57 95.3898 380.228 102.068C376.887 108.745 375.481 116.225 376.171 123.66C376.861 131.095 379.618 138.189 384.131 144.138C370.598 145.005 357.849 150.789 348.284 160.401L322.343 186.343L322.357 186.356C322.186 186.527 322.011 186.691 321.854 186.879L293.623 220.757C294.701 215.071 294.538 209.219 293.146 203.602L288.281 184.138L335.692 18.1982L320.308 13.8018L272.308 181.802C271.922 183.151 271.899 184.579 272.239 185.94L277.624 207.482C278.886 212.572 278.457 217.933 276.4 222.757L269.252 239.436C268.011 242.333 266.211 244.957 263.956 247.158C261.7 249.359 259.033 251.095 256.107 252.265C253.18 253.436 250.052 254.018 246.901 253.98C243.749 253.942 240.636 253.283 237.739 252.041L233.692 250.307C228.844 248.222 224.818 244.601 222.233 240.001C219.647 235.401 218.648 230.078 219.388 224.854L221.896 207.296C222.375 203.954 223.553 200.751 225.353 197.895C227.153 195.039 229.534 192.594 232.342 190.72L244.438 182.656C245.366 182.037 246.155 181.231 246.753 180.289C247.351 179.347 247.746 178.29 247.912 177.186L271.912 17.1865L256.088 14.8135L232.614 171.31L223.467 177.407C218.787 180.53 214.818 184.605 211.818 189.365C208.818 194.125 206.855 199.464 206.057 205.033L205.617 208.114C204.664 208.046 203.708 208 202.745 208H186.367L185.943 205.032C185.144 199.463 183.181 194.124 180.182 189.364C177.182 184.605 173.213 180.53 168.533 177.407L159.386 171.31L135.912 14.8135L120.088 17.1865L144.088 177.186C144.254 178.29 144.649 179.347 145.247 180.289C145.845 181.231 146.634 182.037 147.562 182.656L159.658 190.72C162.466 192.594 164.847 195.038 166.647 197.894C168.447 200.75 169.625 203.953 170.104 207.295L172.612 224.854C173.352 230.079 172.352 235.402 169.767 240.002C167.182 244.602 163.155 248.223 158.307 250.308L154.261 252.041C151.364 253.283 148.251 253.942 145.1 253.98C141.948 254.019 138.82 253.436 135.894 252.265C132.967 251.095 130.3 249.359 128.044 247.158C125.789 244.957 123.989 242.333 122.748 239.436L115.6 222.757C113.543 217.933 113.114 212.572 114.376 207.482L119.761 185.94C120.101 184.579 120.078 183.151 119.692 181.802L71.6924 13.8018L56.3076 18.1982L103.719 184.138L98.8535 203.602C98.4936 205.051 98.2162 206.519 98.0226 208H16V224H99.1288C99.602 225.724 100.192 227.415 100.894 229.06L108.041 245.738C110.103 250.573 113.099 254.952 116.857 258.626C120.615 262.3 125.061 265.196 129.941 267.148C134.821 269.1 140.038 270.069 145.293 270.001C150.548 269.932 155.738 268.826 160.564 266.747L164.61 265.014C165.776 264.514 166.904 263.958 168 263.361V384H16V400H185.837C190.927 400.005 195.969 399.033 200.693 397.139L230.073 385.387L256.97 412.283L257.005 412.316C248.006 416.623 240.737 423.86 236.392 432.841C232.047 441.822 230.883 452.013 233.091 461.742C235.3 471.471 240.749 480.161 248.546 486.386C256.343 492.611 266.023 496.001 276 496H488C490.122 496 492.157 495.157 493.657 493.657C495.157 492.157 496 490.122 496 488V368C496 365.878 495.157 363.843 493.657 362.343C492.157 360.843 490.122 360 488 360H470.381C474.597 356.614 478.428 352.775 481.804 348.551C485.558 343.857 488.18 338.361 489.465 332.489C490.751 326.618 490.666 320.529 489.217 314.696C493.679 306.506 496.011 297.326 496 288V200ZM416 96C420.747 96 425.387 97.4076 429.334 100.045C433.28 102.682 436.357 106.43 438.173 110.816C439.99 115.201 440.465 120.027 439.539 124.682C438.613 129.338 436.327 133.614 432.971 136.971C429.614 140.327 425.338 142.613 420.682 143.539C416.027 144.465 411.201 143.99 406.816 142.173C402.43 140.357 398.682 137.28 396.045 133.334C393.408 129.387 392 124.747 392 120C392.007 113.637 394.538 107.537 399.037 103.037C403.537 98.5382 409.637 96.0073 416 96V96ZM359.598 171.716C363.303 167.99 367.711 165.036 372.566 163.025C377.421 161.013 382.627 159.985 387.882 160H440C450.605 160.012 460.772 164.23 468.271 171.729C475.77 179.228 479.988 189.395 480 200V288C479.988 298.605 475.77 308.772 468.271 316.271C460.772 323.77 450.605 327.988 440 328H439.978C445.192 321.086 448.009 312.66 448 304V240C447.988 229.395 443.77 219.228 436.271 211.729C428.772 204.23 418.605 200.012 408 200H392.985L343.648 187.666L359.598 171.716ZM194.749 382.283C191.916 383.42 188.89 384.003 185.837 384H184V339.314L217.764 373.078L194.749 382.283ZM184 316.686V247.295C187.867 240.178 189.479 232.054 188.622 224H202.745C202.956 224 203.165 224.011 203.376 224.017C202.481 232.518 204.329 241.083 208.65 248.459C212.97 255.835 219.537 261.636 227.389 265.014L231.436 266.748C240.789 270.758 251.319 271.051 260.88 267.568C270.441 264.084 278.315 257.086 282.896 248H288C289.173 248 290.331 247.742 291.393 247.245C292.455 246.747 293.395 246.022 294.146 245.121L330.931 200.979L390.06 215.761C390.694 215.92 391.346 216 392 216H408C414.363 216.007 420.463 218.538 424.963 223.037C429.462 227.537 431.993 233.637 432 240V304C431.993 310.363 429.462 316.463 424.963 320.963C420.463 325.462 414.363 327.993 408 328H341.255C338.102 328.009 334.978 327.392 332.065 326.185C329.152 324.978 326.507 323.206 324.284 320.97L293.657 290.343C292.156 288.843 290.122 288 288 288H243.314L237.657 282.343L226.343 293.657L291.183 358.496C295.704 362.996 301.826 365.52 308.205 365.514C310.938 365.515 313.652 365.047 316.227 364.129L372.587 344H440C451.564 344.009 462.845 340.417 472.274 333.722C471.488 335.448 470.493 337.071 469.311 338.555C463.971 345.262 457.185 350.674 449.458 354.388C441.732 358.102 433.265 360.02 424.693 360H424C422.842 360 421.699 360.251 420.647 360.736L323.029 405.791C319.874 407.241 316.444 407.995 312.972 408H285.255C282.102 408.009 278.978 407.392 276.065 406.185C273.152 404.978 270.507 403.206 268.284 400.97L184 316.686ZM329.723 342.318L310.846 349.061C309.419 349.566 307.878 349.657 306.401 349.325C304.924 348.993 303.571 348.25 302.497 347.183L259.314 304H284.687L312.97 332.283C317.634 336.968 323.392 340.417 329.723 342.318V342.318ZM480 480H276C268.574 480 261.452 477.05 256.201 471.799C250.95 466.548 248 459.426 248 452C248 444.574 250.95 437.452 256.201 432.201C261.452 426.95 268.574 424 276 424H480V480ZM480 376V408H356.424L425.774 375.992C427.867 375.962 429.94 375.816 432 375.612V376H480Z" fill="black"/>
<path d="M408 232H392V264H408V232Z" fill="black"/>
<path d="M408 280H392V312H408V280Z" fill="black"/>
<path d="M347.056 281.889C350.375 283.562 354.096 284.272 357.798 283.938C361.5 283.604 365.034 282.24 368 280L380.8 270.4L371.2 257.6L358.4 267.199C357.806 267.645 357.099 267.917 356.359 267.984C355.619 268.051 354.876 267.91 354.211 267.578C353.547 267.246 352.988 266.735 352.597 266.103C352.207 265.471 352 264.743 352 264H336C335.988 267.717 337.017 271.363 338.971 274.525C340.925 277.687 343.726 280.238 347.056 281.889Z" fill="black"/>
<path d="M327.155 284.422C325.361 280.822 324.548 276.812 324.798 272.797C325.048 268.782 326.352 264.904 328.58 261.554L334.657 252.438L321.343 243.562L315.267 252.679C311.478 258.377 309.259 264.974 308.834 271.803C308.409 278.633 309.792 285.454 312.845 291.578L327.155 284.422Z" fill="black"/>
<path d="M104 448H88V424H72V448H56C53.8783 448 51.8435 448.843 50.3432 450.343C48.8429 451.843 48 453.878 48 456V488C48 490.122 48.8429 492.157 50.3432 493.657C51.8435 495.157 53.8783 496 56 496H104C106.122 496 108.157 495.157 109.657 493.657C111.157 492.157 112 490.122 112 488V456C112 453.878 111.157 451.843 109.657 450.343C108.157 448.843 106.122 448 104 448V448ZM96 480H64V464H96V480Z" fill="black"/>
<path d="M208 416H136C133.878 416 131.844 416.843 130.343 418.343C128.843 419.843 128 421.878 128 424V428.687C127.98 436.074 130.294 443.28 134.612 449.274C130.262 459.598 128.014 470.686 128 481.889V488C128 490.122 128.843 492.157 130.343 493.657C131.844 495.157 133.878 496 136 496H208C210.122 496 212.157 495.157 213.657 493.657C215.157 492.157 216 490.122 216 488V481.889C215.986 470.686 213.738 459.598 209.388 449.274C213.707 443.28 216.021 436.074 216 428.687V424C216 421.878 215.157 419.843 213.657 418.343C212.157 416.843 210.122 416 208 416V416ZM144.027 480C144.314 470.121 146.747 460.423 151.155 451.578C151.906 450.076 152.166 448.376 151.897 446.719C151.628 445.061 150.844 443.53 149.657 442.343C146.835 439.537 144.956 435.922 144.281 432H199.719C199.044 435.922 197.165 439.537 194.343 442.343C193.156 443.53 192.372 445.061 192.103 446.719C191.834 448.376 192.094 450.076 192.845 451.578C197.254 460.423 199.686 470.121 199.973 480H144.027Z" fill="black"/>
<path d="M464 440H272V456H464V440Z" fill="black"/>
</svg>
