<?xml version="1.0" encoding="utf-8"?>
<!-- Generator: Adobe Illustrator 22.0.0, SVG Export Plug-In . SVG Version: 6.00 Build 0)  -->
<svg version="1.1" xmlns="http://www.w3.org/2000/svg" xmlns:xlink="http://www.w3.org/1999/xlink" x="0px" y="0px"
	 viewBox="0 0 64 64" style="enable-background:new 0 0 64 64;" xml:space="preserve">
<g id="Layer_1">
</g>
<g id="Layer_2">
	<g>
		<circle cx="32" cy="20.1" r="9.5"/>
		<circle cx="25.7" cy="40" r="1.8"/>
		<path d="M39.6,31.7v7.4c1.8,0.4,3.2,2.4,3.2,4.8c0,0.4,0,0.7-0.1,1.1c0,0,0,0,0,0.1l0,0c-0.1,0.3-0.4,0.5-0.9,0.5
			c-0.5,0-0.9-0.2-0.9-0.5c0-0.3,0.4-0.5,0.9-0.5c0,0,0.1,0,0.1,0c0-0.2,0.1-0.4,0.1-0.6c0-2.2-1.3-4-2.9-4c-1.6,0-3,1.8-3,4
			c0,0.2,0,0.4,0,0.6c0,0,0.1,0,0.1,0c0.5,0,0.9,0.2,0.9,0.5c0,0.3-0.4,0.5-0.9,0.5c-0.5,0-0.8-0.2-0.9-0.4l0,0c0,0,0,0,0-0.1v0
			c0,0,0,0,0,0c-0.1-0.3-0.1-0.7-0.1-1.1c0-2.4,1.4-4.4,3.2-4.8v-7.9c-0.5-0.2-0.9-0.3-1.4-0.5c-1.6,0.7-3.3,1-5.1,1
			c-1.8,0-3.5-0.4-5.1-1c-0.2,0.1-0.5,0.1-0.7,0.2v6.2c1.3,0.3,2.4,1.5,2.4,2.9c0,1.6-1.3,3-3,3c-1.6,0-3-1.3-3-3
			c0-1.4,1-2.6,2.4-2.9v-5.8c-6.4,2.7-10.9,9.1-10.9,16.4c0,1.9,0.3,3.8,0.9,5.5l34-0.1c0.5-1.7,0.8-3.5,0.8-5.4
			C49.8,40.7,45.7,34.6,39.6,31.7z"/>
	</g>
</g>
</svg>
