<svg width="64" height="64" viewBox="0 0 64 64" fill="none" xmlns="http://www.w3.org/2000/svg">
<path d="M36.375 10.4375C37.4089 10.4375 38.25 9.59637 38.25 8.5625C38.25 7.52863 37.4089 6.6875 36.375 6.6875C35.3411 6.6875 34.5 7.52863 34.5 8.5625C34.5 9.59637 35.3411 10.4375 36.375 10.4375Z" fill="black"/>
<path d="M56.7405 13.1419L55.1754 9.91986C54.1462 8.34899 52.5694 7.26861 50.7312 6.87574C48.8809 6.48036 46.9875 6.82924 45.3996 7.85799C43.8117 8.88674 42.7195 10.4724 42.3241 12.3226C41.9287 14.1729 42.2776 16.0664 43.3064 17.6542C43.3655 17.7455 43.4237 17.8404 43.4812 17.9376H40.8542C36.7531 17.9376 33.4167 21.274 33.4167 25.3751V44.1876C33.4167 44.5329 33.6965 44.8126 34.0417 44.8126C34.387 44.8126 34.6667 44.5329 34.6667 44.1876V25.375C34.6667 21.9632 37.4425 19.1875 40.8542 19.1875H45.9167C46.606 19.1875 47.1667 19.7482 47.1667 20.4375C47.1667 21.1267 46.606 21.6875 45.9167 21.6875H40.698C38.7509 21.6875 37.1667 23.2716 37.1667 25.2187V44.1875C37.1667 44.5327 37.4465 44.8125 37.7917 44.8125C38.137 44.8125 38.4167 44.5327 38.4167 44.1875V25.2187C38.4167 23.9609 39.4401 22.9375 40.698 22.9375H44.6662C44.5641 24.3837 44.0994 25.7776 43.3062 27.0017C42.2775 28.5896 41.9286 30.4831 42.324 32.3334C42.7194 34.1836 43.8116 35.7691 45.3995 36.798C46.9872 37.8266 48.8812 38.1754 50.7311 37.7802C52.5719 37.387 54.1504 36.304 55.1796 34.7295L56.4922 32.197C59.5644 26.2701 59.657 19.1466 56.7405 13.1419ZM54.8027 28.4154C54.6915 28.6299 54.4732 28.7529 54.2474 28.7529C54.1505 28.7529 54.0521 28.7302 53.9602 28.6826C53.6537 28.5237 53.5341 28.1466 53.6929 27.8401C55.4084 24.5304 55.4601 20.5525 53.8312 17.1991C53.6804 16.8886 53.8097 16.5146 54.1204 16.3639C54.4307 16.213 54.805 16.3426 54.9556 16.653C56.7561 20.3597 56.699 24.7569 54.8027 28.4154Z" fill="black"/>
<path d="M54.7583 48.5704C54.6433 47.4745 54.2239 46.4055 53.4996 45.5007C53.5595 45.4721 53.6234 45.4515 53.69 45.4472C53.9495 45.4297 54.2181 45.6677 54.3988 45.8697C54.629 46.1269 55.024 46.1489 55.2814 45.9189C55.5386 45.6886 55.5605 45.2935 55.3305 45.0362C54.7983 44.4416 54.2189 44.1607 53.6091 44.2C53.1905 44.2272 52.8509 44.4041 52.5995 44.5945C51.719 43.8796 50.6628 43.4392 49.5359 43.3159C49.5585 43.2521 49.5903 43.1912 49.6359 43.1404C49.8076 42.9487 50.1638 42.9261 50.4329 42.9412C50.7759 42.959 51.0724 42.6966 51.0916 42.3519C51.1108 42.0072 50.8469 41.7124 50.5023 41.6931C49.7061 41.6485 49.0971 41.8592 48.6936 42.3189C48.4169 42.634 48.3018 42.9994 48.2588 43.3116C47.1308 43.4289 46.0725 43.8644 45.1885 44.5737C45.1599 44.514 45.1393 44.4501 45.135 44.3836C45.1183 44.1252 45.3555 43.8555 45.5575 43.6749C45.8148 43.4446 45.8366 43.0495 45.6066 42.7922C45.3763 42.535 44.9813 42.513 44.724 42.7431C44.1294 43.2752 43.848 43.8544 43.8878 44.4645C43.915 44.8831 44.0919 45.2229 44.2823 45.4741C43.5521 46.3756 43.1276 47.4435 43.0068 48.539C42.9419 48.5164 42.8798 48.4842 42.828 48.4377C42.6364 48.266 42.614 47.9096 42.6289 47.6409C42.648 47.2962 42.3841 47.0014 42.0395 46.9821C41.6946 46.963 41.3999 47.2267 41.3808 47.5715C41.3365 48.3681 41.547 48.9766 42.0065 49.38C42.3228 49.6577 42.69 49.7732 43.003 49.816C43.1181 50.9116 43.5375 51.9805 44.2616 52.8851C44.2018 52.9137 44.1378 52.9344 44.0713 52.9386C43.8126 52.9579 43.5431 52.7182 43.3625 52.5161C43.1321 52.2589 42.7371 52.2369 42.4799 52.467C42.2226 52.6971 42.2008 53.0924 42.4308 53.3496C42.93 53.9075 43.4705 54.1896 44.0394 54.1896C44.0769 54.1896 44.1145 54.1884 44.1521 54.186C44.5708 54.1587 44.9104 53.9819 45.1618 53.7915C46.0423 54.5064 47.0985 54.9467 48.2254 55.0701C48.2028 55.1339 48.171 55.1947 48.1254 55.2456C47.9538 55.4371 47.5976 55.4594 47.3285 55.4447C46.9825 55.4264 46.6889 55.6894 46.6698 56.0341C46.6506 56.3787 46.9145 56.6736 47.2591 56.6929C47.3285 56.6967 47.3963 56.6986 47.4628 56.6986C48.16 56.6986 48.6995 56.4867 49.0678 56.0671C49.3445 55.752 49.4596 55.3866 49.5026 55.0744C50.6306 54.9571 51.6889 54.5216 52.5729 53.8122C52.6015 53.872 52.6221 53.9359 52.6264 54.0024C52.6431 54.2607 52.4059 54.5305 52.2039 54.7111C51.9466 54.9414 51.9248 55.3365 52.1548 55.5937C52.2783 55.7317 52.4491 55.802 52.6209 55.802C52.7693 55.802 52.9181 55.7495 53.0374 55.6429C53.632 55.1107 53.9134 54.5316 53.8736 53.9215C53.8464 53.5029 53.6695 53.1631 53.4791 52.9119C54.2093 52.0104 54.6338 50.9425 54.7546 49.8471C54.8195 49.8697 54.8816 49.9017 54.9334 49.9482C55.125 50.12 55.1474 50.4765 55.1325 50.7452C55.1134 51.0899 55.3773 51.3847 55.7219 51.404C55.7338 51.4046 55.7454 51.405 55.7571 51.405C56.0864 51.405 56.3621 51.1475 56.3805 50.8146C56.4248 50.0179 56.2143 49.4094 55.7548 49.0059C55.4383 48.728 55.0714 48.613 54.7583 48.5704ZM51.5445 50.4041C51.3318 50.5969 50.225 51.5555 49.271 51.5072C48.9299 51.4894 48.6338 51.3506 48.4148 51.1057C48.2936 50.9705 47.7195 51.2719 47.423 51.5325C47.3043 51.6367 47.1571 51.688 47.0106 51.688C46.837 51.688 46.6644 51.6161 46.5409 51.4756C46.313 51.2164 46.3385 50.8215 46.5978 50.5935C47.4395 49.8539 48.6099 49.4665 49.335 50.26C49.5536 50.2926 50.2214 49.914 50.705 49.4775C50.9609 49.2466 51.3561 49.266 51.5875 49.5219C51.8193 49.7779 51.7999 50.1725 51.5445 50.4041ZM48.5339 47.1771C48.8213 46.9856 49.209 47.0632 49.4006 47.3505C49.5923 47.6377 49.5145 48.0257 49.2273 48.2172C48.9334 48.4131 48.657 48.4756 48.424 48.4756C48.2833 48.4756 48.1585 48.4527 48.0551 48.4229C47.2909 48.2012 46.8866 47.3679 46.8134 47.2029C46.6733 46.8875 46.8154 46.5181 47.1308 46.3779C47.4454 46.2381 47.8138 46.3792 47.9546 46.6929C48.0545 46.9111 48.2676 47.1837 48.4039 47.2224C48.4146 47.2256 48.4475 47.2347 48.5339 47.1771Z" fill="black"/>
<path d="M57.9375 41.6875C58.4553 41.6875 58.875 41.2678 58.875 40.75C58.875 40.2322 58.4553 39.8125 57.9375 39.8125C57.4197 39.8125 57 40.2322 57 40.75C57 41.2678 57.4197 41.6875 57.9375 41.6875Z" fill="black"/>
<path d="M29.1875 13.5625C29.7053 13.5625 30.125 13.1428 30.125 12.625C30.125 12.1072 29.7053 11.6875 29.1875 11.6875C28.6697 11.6875 28.25 12.1072 28.25 12.625C28.25 13.1428 28.6697 13.5625 29.1875 13.5625Z" fill="black"/>
<path d="M58.5625 7.3125C59.0803 7.3125 59.5 6.89277 59.5 6.375C59.5 5.85723 59.0803 5.4375 58.5625 5.4375C58.0447 5.4375 57.625 5.85723 57.625 6.375C57.625 6.89277 58.0447 7.3125 58.5625 7.3125Z" fill="black"/>
<path d="M5.4375 8.5625C5.95527 8.5625 6.375 8.14277 6.375 7.625C6.375 7.10723 5.95527 6.6875 5.4375 6.6875C4.91973 6.6875 4.5 7.10723 4.5 7.625C4.5 8.14277 4.91973 8.5625 5.4375 8.5625Z" fill="black"/>
<path d="M23.4794 17.9375H20.8524C20.91 17.8401 20.9684 17.7451 21.0274 17.654C22.056 16.0662 22.405 14.1727 22.0095 12.3225C21.614 10.4722 20.5219 8.8866 18.934 7.85785C17.3461 6.8291 15.4527 6.47998 13.6024 6.8756C11.7644 7.26848 10.1875 8.34898 9.15825 9.91973L7.59325 13.1417C4.67662 19.1466 4.76937 26.27 7.84112 32.1969L9.15375 34.7293C11.2837 37.9876 15.6644 38.9162 18.9339 36.7978C22.2117 34.6742 23.1509 30.2796 21.0272 27.0016C20.2341 25.7776 19.7694 24.3837 19.6672 22.9373H23.6355C24.8934 22.9373 25.9167 23.9607 25.9167 25.2186V57.9375C25.9167 58.2827 26.1966 58.5625 26.5417 58.5625C26.8869 58.5625 27.1667 58.2827 27.1667 57.9375V25.2187C27.1667 23.2716 25.5826 21.6875 23.6355 21.6875H18.4167C17.7275 21.6875 17.1667 21.1267 17.1667 20.4375C17.1667 19.7482 17.7275 19.1875 18.4167 19.1875H23.4792C26.891 19.1875 29.6667 21.9632 29.6667 25.375V57.9375C29.6667 58.2827 29.9466 58.5625 30.2917 58.5625C30.6369 58.5625 30.9167 58.2827 30.9167 57.9375V25.375C30.9169 21.2739 27.5805 17.9375 23.4794 17.9375ZM10.3735 28.6826C10.2816 28.7302 10.1832 28.7528 10.0864 28.7528C9.86037 28.7528 9.64212 28.6298 9.531 28.4153C7.63475 24.7567 7.57762 20.3596 9.378 16.653C9.52887 16.3424 9.90275 16.213 10.2132 16.3638C10.5237 16.5147 10.6532 16.8886 10.5024 17.1991C8.8735 20.5524 8.92525 24.5302 10.6406 27.8401C10.7996 28.1466 10.6799 28.5239 10.3735 28.6826Z" fill="black"/>
<path d="M11.375 47.9375C8.96263 47.9375 7 49.9001 7 52.3125C7 54.7249 8.96263 56.6875 11.375 56.6875C13.7874 56.6875 15.75 54.7249 15.75 52.3125C15.75 49.9001 13.7874 47.9375 11.375 47.9375Z" fill="black"/>
<path d="M37.3125 53.5625C37.8303 53.5625 38.25 53.1428 38.25 52.625C38.25 52.1072 37.8303 51.6875 37.3125 51.6875C36.7947 51.6875 36.375 52.1072 36.375 52.625C36.375 53.1428 36.7947 53.5625 37.3125 53.5625Z" fill="black"/>
<path d="M6.0625 41.6875C6.58027 41.6875 7 41.2678 7 40.75C7 40.2322 6.58027 39.8125 6.0625 39.8125C5.54473 39.8125 5.125 40.2322 5.125 40.75C5.125 41.2678 5.54473 41.6875 6.0625 41.6875Z" fill="black"/>
<path d="M21.6875 51.6875C22.2053 51.6875 22.625 51.2678 22.625 50.75C22.625 50.2322 22.2053 49.8125 21.6875 49.8125C21.1697 49.8125 20.75 50.2322 20.75 50.75C20.75 51.2678 21.1697 51.6875 21.6875 51.6875Z" fill="black"/>
</svg>
