<svg width="64" height="64" viewBox="0 0 64 64" fill="none" xmlns="http://www.w3.org/2000/svg">
<path d="M18.6667 30.6666C18.9143 30.6666 19.157 30.7356 19.3676 30.8658C19.5783 30.996 19.7485 31.1822 19.8592 31.4037C19.97 31.6252 20.0169 31.8731 19.9946 32.1197C19.9724 32.3663 19.8819 32.6019 19.7333 32.8C19.5105 33.0971 19.3748 33.4504 19.3414 33.8204C19.3081 34.1903 19.3784 34.5622 19.5445 34.8944C19.7106 35.2266 19.9659 35.506 20.2819 35.7013C20.5978 35.8965 20.9619 36 21.3333 36C21.7048 36 22.0689 35.8965 22.3848 35.7013C22.7008 35.506 22.9561 35.2266 23.1222 34.8944C23.2883 34.5622 23.3586 34.1903 23.3253 33.8204C23.2919 33.4504 23.1562 33.0971 22.9333 32.8C22.7848 32.6019 22.6943 32.3663 22.6721 32.1197C22.6498 31.8731 22.6967 31.6252 22.8074 31.4037C22.9182 31.1822 23.0884 30.996 23.299 30.8658C23.5097 30.7356 23.7524 30.6666 24 30.6666H30.6667V25.952C30.0043 26.0477 29.3291 25.9999 28.6868 25.8117C28.0446 25.6235 27.4503 25.2994 26.9444 24.8613C26.4384 24.4232 26.0326 23.8814 25.7545 23.2727C25.4764 22.664 25.3324 22.0026 25.3324 21.3333C25.3324 20.6641 25.4764 20.0026 25.7545 19.3939C26.0326 18.7852 26.4384 18.2434 26.9444 17.8053C27.4503 17.3673 28.0446 17.0431 28.6868 16.8549C29.3291 16.6668 30.0043 16.6189 30.6667 16.7146V4.01065C29.78 4.00373 28.8936 4.04825 28.012 4.14398C24.9462 4.49561 21.9864 5.47838 19.3191 7.03037C16.6518 8.58237 14.3349 10.67 12.5142 13.1616C10.6936 15.6533 9.40873 18.495 8.74057 21.5077C8.07241 24.5204 8.03545 27.6389 8.63201 30.6666H18.6667Z" fill="black"/>
<path d="M33.3333 18.6666C33.3333 18.9143 33.2644 19.157 33.1342 19.3676C33.004 19.5783 32.8178 19.7485 32.5963 19.8592C32.3748 19.97 32.1269 20.0168 31.8803 19.9946C31.6336 19.9724 31.3981 19.8819 31.2 19.7333C30.9029 19.5105 30.5495 19.3747 30.1796 19.3414C29.8097 19.308 29.4378 19.3784 29.1056 19.5445C28.7734 19.7106 28.494 19.9659 28.2987 20.2818C28.1034 20.5978 28 20.9619 28 21.3333C28 21.7047 28.1034 22.0688 28.2987 22.3848C28.494 22.7007 28.7734 22.9561 29.1056 23.1222C29.4378 23.2883 29.8097 23.3586 30.1796 23.3252C30.5495 23.2919 30.9029 23.1562 31.2 22.9333C31.3981 22.7847 31.6336 22.6943 31.8803 22.672C32.1269 22.6498 32.3748 22.6967 32.5963 22.8074C32.8178 22.9181 33.004 23.0884 33.1342 23.299C33.2644 23.5096 33.3333 23.7524 33.3333 24V30.6666H38.048C38.0167 30.4458 38.0006 30.223 38 30C38 28.7623 38.4917 27.5753 39.3668 26.7001C40.242 25.825 41.429 25.3333 42.6667 25.3333C43.9043 25.3333 45.0913 25.825 45.9665 26.7001C46.8417 27.5753 47.3333 28.7623 47.3333 30C47.3327 30.223 47.3167 30.4458 47.2853 30.6666H52.5173C52.8043 29.2539 52.9517 27.8163 52.9573 26.3746C52.9555 20.9192 50.9596 15.6525 47.3453 11.566C43.7311 7.47949 38.7477 4.85504 33.3333 4.18665V18.6666Z" fill="black"/>
<path d="M53.5067 33.3333H45.3334C45.0858 33.3333 44.843 33.2644 44.6324 33.1342C44.4218 33.004 44.2515 32.8178 44.1408 32.5963C44.0301 32.3748 43.9832 32.1269 44.0054 31.8803C44.0277 31.6336 44.1181 31.3981 44.2667 31.2C44.4896 30.9029 44.6253 30.5495 44.6586 30.1796C44.692 29.8097 44.6217 29.4378 44.4556 29.1056C44.2895 28.7734 44.0341 28.494 43.7182 28.2987C43.4022 28.1034 43.0381 28 42.6667 28C42.2953 28 41.9312 28.1034 41.6152 28.2987C41.2993 28.494 41.044 28.7734 40.8779 29.1056C40.7117 29.4378 40.6414 29.8097 40.6748 30.1796C40.7081 30.5495 40.8439 30.9029 41.0667 31.2C41.2153 31.3981 41.3058 31.6336 41.328 31.8803C41.3502 32.1269 41.3033 32.3748 41.1926 32.5963C41.0819 32.8178 40.9117 33.004 40.701 33.1342C40.4904 33.2644 40.2477 33.3333 40 33.3333H33.3334V38.048C33.5542 38.0166 33.777 38.0006 34 38C35.2377 38 36.4247 38.4917 37.2999 39.3668C38.175 40.242 38.6667 41.429 38.6667 42.6667C38.6667 43.9043 38.175 45.0913 37.2999 45.9665C36.4247 46.8417 35.2377 47.3333 34 47.3333C33.777 47.3327 33.5542 47.3167 33.3334 47.2853V61.3333H33.3814L34.78 52.944L44.9134 54.2107C45.5698 54.2927 46.2363 54.2342 46.8684 54.0391C47.5006 53.844 48.084 53.5167 48.58 53.0789C49.076 52.6411 49.4733 52.1029 49.7455 51.4999C50.0177 50.8969 50.1585 50.2429 50.1587 49.5813V42.7027C50.1587 42.4232 50.2423 42.1501 50.3989 41.9186C50.5556 41.6872 50.7779 41.5079 51.0374 41.404L55.5707 39.5907C55.7625 39.514 55.9349 39.3957 56.0755 39.2445C56.2161 39.0932 56.3215 38.9127 56.3841 38.7159C56.4467 38.5191 56.4649 38.3109 56.4375 38.1062C56.41 37.9015 56.3376 37.7054 56.2254 37.532L53.5067 33.3333Z" fill="black"/>
<path d="M11.0093 61.3333H30.6666V45.3333C30.6666 45.0857 30.7356 44.843 30.8658 44.6323C30.9959 44.4217 31.1822 44.2515 31.4037 44.1407C31.6252 44.03 31.8731 43.9831 32.1197 44.0054C32.3663 44.0276 32.6019 44.1181 32.8 44.2666C33.0971 44.4895 33.4504 44.6252 33.8204 44.6586C34.1903 44.6919 34.5622 44.6216 34.8944 44.4555C35.2266 44.2894 35.506 44.0341 35.7013 43.7181C35.8965 43.4022 36 43.0381 36 42.6666C36 42.2952 35.8965 41.9311 35.7013 41.6152C35.506 41.2992 35.2266 41.0439 34.8944 40.8778C34.5622 40.7117 34.1903 40.6414 33.8204 40.6747C33.4504 40.7081 33.0971 40.8438 32.8 41.0666C32.6019 41.2152 32.3663 41.3057 32.1197 41.3279C31.8731 41.3502 31.6252 41.3033 31.4037 41.1925C31.1822 41.0818 30.9959 40.9116 30.8658 40.701C30.7356 40.4903 30.6666 40.2476 30.6666 40V33.3333H25.952C25.9833 33.5542 25.9994 33.7769 26 34C26 35.2377 25.5083 36.4246 24.6331 37.2998C23.758 38.175 22.571 38.6666 21.3333 38.6666C20.0956 38.6666 18.9086 38.175 18.0335 37.2998C17.1583 36.4246 16.6666 35.2377 16.6666 34C16.6672 33.7769 16.6833 33.5542 16.7146 33.3333H9.33997C9.7594 34.6184 10.2949 35.8627 10.94 37.0506C13.6484 41.9881 14.3963 47.7649 13.0346 53.2293L11.0093 61.3333Z" fill="black"/>
</svg>
