<?xml version="1.0" encoding="UTF-8" standalone="no"?> <svg xmlns="http://www.w3.org/2000/svg" viewBox="0 0 48 48"><title>Psychology</title><g id="_21_-_30" data-name="21 - 30"><g id="Psychology"><path d="M14,23a1,1,0,0,1,.8,1.6,1.5,1.5,0,1,0,2.4,0A1,1,0,0,1,18,23h5V19.464a3.5,3.5,0,1,1,0-6.928V3.008a17.2,17.2,0,0,0-1.991.1A16.761,16.761,0,0,0,6.474,23Z"/><path d="M25,14a1,1,0,0,1-1.6.8,1.5,1.5,0,1,0,0,2.4A1,1,0,0,1,25,18v5h3.536a3.633,3.633,0,0,1-.036-.5,3.5,3.5,0,0,1,7,0,3.633,3.633,0,0,1-.036.5h3.924a16.491,16.491,0,0,0,.33-3.219A16.773,16.773,0,0,0,25,3.14Z"/><path d="M40.13,25H34a1,1,0,0,1-.8-1.6,1.5,1.5,0,1,0-2.4,0A1,1,0,0,1,30,25H25v3.536a3.622,3.622,0,0,1,.5-.036,3.5,3.5,0,0,1,0,7,3.622,3.622,0,0,1-.5-.036V46h.036l1.049-6.292,7.6.95a3.5,3.5,0,0,0,3.934-3.472V32.027a1.049,1.049,0,0,1,.659-.974l3.4-1.36a1.049,1.049,0,0,0,.491-1.544Z"/><path d="M8.257,46H23V34a1,1,0,0,1,1.6-.8,1.5,1.5,0,1,0,0-2.4A1,1,0,0,1,23,30V25H19.464a3.622,3.622,0,0,1,.036.5,3.5,3.5,0,0,1-7,0,3.622,3.622,0,0,1,.036-.5H7.005a16.706,16.706,0,0,0,1.2,2.788A16.789,16.789,0,0,1,9.776,39.922Z"/></g></g></svg>