<svg width="65" height="65" viewBox="0 0 65 65" fill="none" xmlns="http://www.w3.org/2000/svg">
<path d="M15.5863 31.4205L33.872 49.8319L49.8134 33.8832L31.5277 15.5891L15.5863 31.4205ZM25.0808 33.6487C24.7292 34.0005 24.0259 34.0005 23.6742 33.6487C23.3226 33.2968 23.3226 32.5932 23.6742 32.2414C24.0259 31.8896 24.7292 31.8896 25.0808 32.2414C25.4325 32.5932 25.4325 33.1796 25.0808 33.6487ZM29.1834 37.7531C28.8317 38.1049 28.1284 38.1049 27.7768 37.7531C27.4251 37.4013 27.4251 36.6977 27.7768 36.3459C28.1284 35.9941 28.8317 35.9941 29.1834 36.3459C29.535 36.6977 29.535 37.284 29.1834 37.7531ZM29.3006 29.3097C28.9489 29.6615 28.2456 29.6615 27.894 29.3097C27.5423 28.9579 27.5423 28.2542 27.894 27.9024C28.2456 27.5506 28.9489 27.5506 29.3006 27.9024C29.7694 28.2542 29.7694 28.9579 29.3006 29.3097ZM33.2859 41.8575C32.9343 42.2094 32.231 42.2094 31.8793 41.8575C31.5277 41.5057 31.5277 40.8021 31.8793 40.4503C32.231 40.0985 32.9343 40.0985 33.2859 40.4503C33.6376 40.8021 33.6376 41.3885 33.2859 41.8575ZM40.3189 31.7723C40.6705 31.4205 41.3738 31.4205 41.7255 31.7723C42.0771 32.1242 42.0771 32.8278 41.7255 33.1796C41.3738 33.5314 40.6705 33.5314 40.3189 33.1796C39.9673 32.8278 39.9673 32.2414 40.3189 31.7723ZM36.2163 27.6679C36.568 27.3161 37.2713 27.3161 37.6229 27.6679C37.9746 28.0197 37.9746 28.7233 37.6229 29.0751C37.2713 29.4269 36.568 29.4269 36.2163 29.0751C35.8647 28.7233 35.8647 28.137 36.2163 27.6679ZM36.0991 36.1113C36.4508 35.7595 37.1541 35.7595 37.5057 36.1113C37.8574 36.4631 37.8574 37.1668 37.5057 37.5186C37.1541 37.8704 36.4508 37.8704 36.0991 37.5186C35.6303 37.1668 35.6303 36.4631 36.0991 36.1113ZM32.1138 23.5635C32.4654 23.2116 33.1687 23.2116 33.5204 23.5635C33.872 23.9153 33.872 24.6189 33.5204 24.9707C33.1687 25.3225 32.4654 25.3225 32.1138 24.9707C31.7621 24.6189 31.7621 24.0325 32.1138 23.5635ZM31.9966 32.0069C32.3482 31.6551 33.0515 31.6551 33.4031 32.0069C33.7548 32.3587 33.7548 33.0623 33.4031 33.4141C33.0515 33.7659 32.3482 33.7659 31.9966 33.4141C31.5277 33.0623 31.5277 32.3587 31.9966 32.0069Z" fill="black"/>
<path d="M61.4179 6.55927L58.8391 3.97933C54.5021 -0.359648 47.4692 -0.359648 43.1322 3.97933L32.8171 14.2991L51.1029 32.5932L61.4179 22.2734C63.5278 20.1626 64.6999 17.3481 64.6999 14.4163C64.6999 11.4846 63.5278 8.67013 61.4179 6.55927Z" fill="black"/>
<path d="M14.297 32.8276L3.982 43.1474C1.87211 45.2582 0.699951 48.0727 0.699951 51.0045C0.699951 53.9362 1.87211 56.7507 3.982 58.8615L6.56076 61.4415C8.67065 63.5523 11.4838 64.725 14.4142 64.725C17.3446 64.725 20.1578 63.5523 22.2677 61.4415L32.5827 51.1217L14.297 32.8276Z" fill="black"/>
</svg>
