<?xml version="1.0" encoding="iso-8859-1"?>
<!-- Generator: Adobe Illustrator 21.0.0, SVG Export Plug-In . SVG Version: 6.00 Build 0)  -->
<svg version="1.1" id="medical-vacination-health-hospital"
	 xmlns="http://www.w3.org/2000/svg" xmlns:xlink="http://www.w3.org/1999/xlink" x="0px" y="0px" viewBox="0 0 64 64"
	 style="enable-background:new 0 0 64 64;" xml:space="preserve">
<path d="M59.324,37.075l1.414-1.414l-2.121-2.121l-0.707-0.707l3.535-3.536l0.707,0.707l1.414-1.414l-1.414-1.414l-2.828-2.828
	l-1.414-1.414l-1.414,1.414l0.707,0.707l-3.536,3.535l-0.707-0.707l-2.121-2.121l-1.414,1.414l1.414,1.414l-14.85,14.85
	c-0.391,0.391-0.391,1.023,0,1.414l0.708,0.708l-3.536,3.536c-0.391,0.391-0.391,1.023,0,1.414l0.707,0.707L23.262,61.824
	l1.414,1.414l10.606-10.606l0.707,0.707c0.195,0.195,0.451,0.293,0.707,0.293s0.512-0.098,0.707-0.293l3.536-3.536l0.708,0.708
	c0.195,0.195,0.451,0.293,0.707,0.293s0.512-0.098,0.707-0.293l14.85-14.85L59.324,37.075z M58.617,26.469l1.414,1.414l-3.535,3.536
	l-1.415-1.415L58.617,26.469z M36.696,51.218l-1.414-1.414l2.829-2.829l1.414,1.414L36.696,51.218z M42.354,48.39l-0.705-0.705
	c-0.001-0.001-0.001-0.002-0.002-0.003l-2.828-2.828c-0.001-0.001-0.002-0.001-0.003-0.002l-0.705-0.705l2.122-2.122l2.122,2.122
	l1.414-1.414l-2.122-2.122l1.414-1.414l2.121,2.122l1.414-1.414l-2.121-2.122l1.414-1.414l2.122,2.121l1.414-1.414l-2.122-2.121
	l1.414-1.414l2.122,2.122l1.414-1.414l-2.122-2.122l2.122-2.122l0.707,0.707l2.829,2.829l0.707,0.707L42.354,48.39z"/>
<path d="M30,44.5V18c0-1.654,1.346-3,3-3h4.059c0.499,4.493,4.316,8,8.941,8c4.963,0,9-4.037,9-9s-4.037-9-9-9
	c-4.625,0-8.442,3.507-8.941,8H33c-2.757,0-5,2.243-5,5v26.5c0,4.136-3.364,7.5-7.5,7.5S13,48.636,13,44.5V33h6c2.757,0,5-2.243,5-5
	V12c0-2.468-1.802-4.512-4.158-4.915C19.453,5.88,18.333,5,17,5c-1.654,0-3,1.346-3,3s1.346,3,3,3c1.259,0,2.336-0.782,2.78-1.884
	C21.055,9.461,22,10.617,22,12v16c0,1.654-1.346,3-3,3H5c-1.654,0-3-1.346-3-3V12c0-1.383,0.945-2.539,2.22-2.884
	C4.664,10.218,5.741,11,7,11c1.654,0,3-1.346,3-3S8.654,5,7,5C5.667,5,4.547,5.88,4.158,7.085C1.802,7.488,0,9.532,0,12v16
	c0,2.757,2.243,5,5,5h6v11.5c0,5.238,4.262,9.5,9.5,9.5S30,49.738,30,44.5z M46,7c3.859,0,7,3.141,7,7s-3.141,7-7,7s-7-3.141-7-7
	S42.141,7,46,7z M17,9c-0.552,0-1-0.448-1-1s0.448-1,1-1s1,0.448,1,1S17.552,9,17,9z M7,7c0.552,0,1,0.448,1,1S7.552,9,7,9
	S6,8.552,6,8S6.448,7,7,7z"/>
<path d="M46,19c2.757,0,5-2.243,5-5s-2.243-5-5-5s-5,2.243-5,5S43.243,19,46,19z M46,11c1.654,0,3,1.346,3,3s-1.346,3-3,3
	s-3-1.346-3-3S44.346,11,46,11z"/>
<rect y="50" width="2" height="2"/>
<rect x="4" y="50" width="2" height="2"/>
<rect y="54" width="2" height="2"/>
<rect x="4" y="54" width="2" height="2"/>
<rect x="8" y="54" width="2" height="2"/>
<rect y="58" width="2" height="2"/>
<rect x="4" y="58" width="2" height="2"/>
<rect x="8" y="58" width="2" height="2"/>
<rect y="62" width="2" height="2"/>
<rect x="4" y="62" width="2" height="2"/>
<rect x="8" y="62" width="2" height="2"/>
<rect x="12" y="58" width="2" height="2"/>
<rect x="12" y="62" width="2" height="2"/>
<rect x="16" y="62" width="2" height="2"/>
<path d="M63,52h-3v-3c0-0.553-0.447-1-1-1h-6c-0.553,0-1,0.447-1,1v3h-3c-0.553,0-1,0.447-1,1v6c0,0.553,0.447,1,1,1h3v3
	c0,0.553,0.447,1,1,1h6c0.553,0,1-0.447,1-1v-3h3c0.553,0,1-0.447,1-1v-6C64,52.447,63.553,52,63,52z M62,58h-3
	c-0.553,0-1,0.447-1,1v3h-4v-3c0-0.553-0.447-1-1-1h-3v-4h3c0.553,0,1-0.447,1-1v-3h4v3c0,0.553,0.447,1,1,1h3V58z"/>
<rect x="62" y="12" width="2" height="2"/>
<rect x="58" y="12" width="2" height="2"/>
<rect x="62" y="8" width="2" height="2"/>
<rect x="58" y="8" width="2" height="2"/>
<rect x="62" y="4" width="2" height="2"/>
<rect x="58" y="4" width="2" height="2"/>
<rect x="54" y="4" width="2" height="2"/>
<rect x="62" width="2" height="2"/>
<rect x="58" width="2" height="2"/>
<rect x="54" width="2" height="2"/>
<rect x="50" width="2" height="2"/>
</svg>
