<svg width="64" height="64" viewBox="0 0 64 64" fill="none" xmlns="http://www.w3.org/2000/svg">
<path d="M23.4 23.84C23.48 29.36 40.58 29.09 40.4 23.84C40 12.94 23.83 12.94 23.4 23.84Z" fill="black"/>
<path d="M34.61 14.34C38.45 15.81 40 7.86999 37.1 6.68999C33.26 5.21999 31.75 13.16 34.61 14.34Z" fill="black"/>
<path d="M38.58 17.84C41.21 21.57 45.84 16.01 44.05 13.1C41.43 9.36998 36.78 14.91 38.58 17.84Z" fill="black"/>
<path d="M25.41 11.54C26.94 16.73 31.87 14.59 30.47 9.54001C29.07 4.49001 24.01 6.54001 25.41 11.54Z" fill="black"/>
<path d="M23.12 19.05C27.58 18.75 25.22 11.36 21.45 11.91C17.54 12.66 19.67 19.11 23.12 19.05Z" fill="black"/>
<path d="M55.5 48.23C55.0241 47.7525 54.4583 47.374 53.8352 47.1165C53.2121 46.8591 52.5442 46.7277 51.87 46.73H12.23C11.6007 46.7099 10.9909 46.5074 10.4745 46.1472C9.95815 45.787 9.55753 45.2845 9.32134 44.7009C9.08514 44.1173 9.02354 43.4777 9.14402 42.8597C9.2645 42.2418 9.56187 41.6721 10 41.22C10.298 40.9189 10.6532 40.6806 11.0448 40.5192C11.4364 40.3577 11.8564 40.2764 12.28 40.28H28.84C29.7772 40.2764 30.686 39.958 31.4205 39.3759C32.155 38.7937 32.6725 37.9816 32.89 37.07C37.7664 36.8413 42.3676 34.7445 45.7395 31.2144C49.1114 27.6843 50.9951 22.9917 51 18.11V4C51 3.73478 50.8946 3.48043 50.7071 3.29289C50.5196 3.10536 50.2652 3 50 3H47.8C47.5348 3 47.2804 3.10536 47.0929 3.29289C46.9054 3.48043 46.8 3.73478 46.8 4C46.8 4.26522 46.9054 4.51957 47.0929 4.70711C47.2804 4.89464 47.5348 5 47.8 5H49V18.11C49 22.6187 47.2089 26.9427 44.0208 30.1308C40.8327 33.3189 36.5087 35.11 32 35.11C27.4913 35.11 23.1673 33.3189 19.9792 30.1308C16.7911 26.9427 15 22.6187 15 18.11V5H16.21C16.4752 5 16.7296 4.89464 16.9171 4.70711C17.1046 4.51957 17.21 4.26522 17.21 4C17.21 3.73478 17.1046 3.48043 16.9171 3.29289C16.7296 3.10536 16.4752 3 16.21 3H14C13.7348 3 13.4804 3.10536 13.2929 3.29289C13.1054 3.48043 13 3.73478 13 4V18.11C13.0054 22.936 14.8471 27.579 18.1511 31.0966C21.4551 34.6142 25.9738 36.7427 30.79 37.05C30.6124 37.4168 30.3356 37.7265 29.9909 37.9439C29.6462 38.1613 29.2475 38.2777 28.84 38.28H12.23C11.5246 38.2491 10.8203 38.3614 10.1595 38.6101C9.49862 38.8587 8.89499 39.2386 8.38493 39.7269C7.87488 40.2151 7.46896 40.8015 7.19164 41.4509C6.91433 42.1002 6.77136 42.7989 6.77136 43.505C6.77136 44.2111 6.91433 44.9098 7.19164 45.5591C7.46896 46.2085 7.87488 46.7949 8.38493 47.2831C8.89499 47.7714 9.49862 48.1513 10.1595 48.3999C10.8203 48.6486 11.5246 48.7609 12.23 48.73H51.87C52.6708 48.7752 53.424 49.1253 53.975 49.7082C54.5259 50.2912 54.8329 51.0629 54.8329 51.865C54.8329 52.6671 54.5259 53.4388 53.975 54.0218C53.424 54.6047 52.6708 54.9548 51.87 55H36.87C35.61 49.19 27.06 50 26.97 56C27.06 62 35.61 62.81 36.87 57H51.87C52.8811 56.9889 53.8666 56.681 54.7042 56.1145C55.5417 55.5481 56.1944 54.748 56.5811 53.8137C56.9678 52.8795 57.0715 51.8522 56.8793 50.8595C56.6871 49.8668 56.2075 48.9524 55.5 48.23ZM32 59C31.2044 59 30.4413 58.6839 29.8787 58.1213C29.3161 57.5587 29 56.7956 29 56C29 55.2044 29.3161 54.4413 29.8787 53.8787C30.4413 53.3161 31.2044 53 32 53C32.7956 53 33.5587 53.3161 34.1213 53.8787C34.6839 54.4413 35 55.2044 35 56C35 56.7956 34.6839 57.5587 34.1213 58.1213C33.5587 58.6839 32.7956 59 32 59Z" fill="black"/>
</svg>
