<svg width="111" height="48" viewBox="0 0 111 48" fill="none" xmlns="http://www.w3.org/2000/svg">
<g filter="url(#filter0_d_304_25)">
<g clip-path="url(#clip0_304_25)">
<rect x="4" width="103" height="40" rx="20" fill="url(#paint0_linear_304_25)"/>
<path d="M42.5465 15.504H43.6985V22.92H47.5985V24H42.5465V15.504ZM49.3692 21.156C49.3692 21.444 49.4132 21.712 49.5012 21.96C49.5892 22.2 49.7132 22.408 49.8732 22.584C50.0332 22.752 50.2292 22.888 50.4612 22.992C50.6932 23.088 50.9532 23.136 51.2412 23.136C51.5292 23.136 51.7892 23.088 52.0212 22.992C52.2532 22.888 52.4492 22.752 52.6092 22.584C52.7692 22.408 52.8932 22.2 52.9812 21.96C53.0692 21.712 53.1132 21.444 53.1132 21.156C53.1132 20.868 53.0692 20.604 52.9812 20.364C52.8932 20.116 52.7692 19.908 52.6092 19.74C52.4492 19.564 52.2532 19.428 52.0212 19.332C51.7892 19.228 51.5292 19.176 51.2412 19.176C50.9532 19.176 50.6932 19.228 50.4612 19.332C50.2292 19.428 50.0332 19.564 49.8732 19.74C49.7132 19.908 49.5892 20.116 49.5012 20.364C49.4132 20.604 49.3692 20.868 49.3692 21.156ZM48.2172 21.156C48.2172 20.74 48.2932 20.352 48.4452 19.992C48.6052 19.632 48.8212 19.316 49.0932 19.044C49.3652 18.772 49.6852 18.56 50.0532 18.408C50.4212 18.248 50.8172 18.168 51.2412 18.168C51.6652 18.168 52.0612 18.248 52.4292 18.408C52.7972 18.56 53.1172 18.772 53.3892 19.044C53.6612 19.316 53.8732 19.632 54.0252 19.992C54.1852 20.352 54.2652 20.74 54.2652 21.156C54.2652 21.572 54.1852 21.964 54.0252 22.332C53.8732 22.692 53.6612 23.008 53.3892 23.28C53.1172 23.544 52.7972 23.756 52.4292 23.916C52.0612 24.068 51.6652 24.144 51.2412 24.144C50.8172 24.144 50.4212 24.068 50.0532 23.916C49.6852 23.756 49.3652 23.544 49.0932 23.28C48.8212 23.008 48.6052 22.692 48.4452 22.332C48.2932 21.964 48.2172 21.572 48.2172 21.156ZM55.6182 14.928H56.6982V20.784L59.1462 18.324H60.6462L57.9942 20.904L60.8742 24H59.3382L56.6982 21.048V24H55.6182V14.928ZM61.8648 19.008C62.1688 18.728 62.5208 18.52 62.9208 18.384C63.3208 18.24 63.7208 18.168 64.1208 18.168C64.5368 18.168 64.8928 18.22 65.1888 18.324C65.4928 18.428 65.7408 18.568 65.9328 18.744C66.1248 18.92 66.2648 19.124 66.3528 19.356C66.4488 19.58 66.4968 19.816 66.4968 20.064V22.968C66.4968 23.168 66.5008 23.352 66.5088 23.52C66.5168 23.688 66.5288 23.848 66.5448 24H65.5848C65.5608 23.712 65.5488 23.424 65.5488 23.136H65.5248C65.2848 23.504 65.0008 23.764 64.6728 23.916C64.3448 24.068 63.9648 24.144 63.5328 24.144C63.2688 24.144 63.0168 24.108 62.7768 24.036C62.5368 23.964 62.3248 23.856 62.1408 23.712C61.9648 23.568 61.8248 23.392 61.7208 23.184C61.6168 22.968 61.5648 22.72 61.5648 22.44C61.5648 22.072 61.6448 21.764 61.8048 21.516C61.9728 21.268 62.1968 21.068 62.4768 20.916C62.7648 20.756 63.0968 20.644 63.4728 20.58C63.8568 20.508 64.2648 20.472 64.6968 20.472H65.4888V20.232C65.4888 20.088 65.4608 19.944 65.4048 19.8C65.3488 19.656 65.2648 19.528 65.1528 19.416C65.0408 19.296 64.9008 19.204 64.7328 19.14C64.5648 19.068 64.3648 19.032 64.1328 19.032C63.9248 19.032 63.7408 19.052 63.5808 19.092C63.4288 19.132 63.2888 19.184 63.1608 19.248C63.0328 19.304 62.9168 19.372 62.8128 19.452C62.7088 19.532 62.6088 19.608 62.5128 19.68L61.8648 19.008ZM64.9128 21.264C64.6568 21.264 64.3928 21.28 64.1208 21.312C63.8568 21.336 63.6128 21.388 63.3888 21.468C63.1728 21.548 62.9928 21.66 62.8488 21.804C62.7128 21.948 62.6448 22.132 62.6448 22.356C62.6448 22.684 62.7528 22.92 62.9688 23.064C63.1928 23.208 63.4928 23.28 63.8688 23.28C64.1648 23.28 64.4168 23.232 64.6248 23.136C64.8328 23.032 65.0008 22.9 65.1288 22.74C65.2568 22.58 65.3488 22.404 65.4048 22.212C65.4608 22.012 65.4888 21.816 65.4888 21.624V21.264H64.9128ZM71.0875 19.74C70.9595 19.58 70.7995 19.448 70.6075 19.344C70.4235 19.232 70.1955 19.176 69.9235 19.176C69.6675 19.176 69.4435 19.232 69.2515 19.344C69.0675 19.448 68.9755 19.604 68.9755 19.812C68.9755 19.98 69.0275 20.116 69.1315 20.22C69.2435 20.324 69.3715 20.408 69.5155 20.472C69.6675 20.536 69.8275 20.584 69.9955 20.616C70.1635 20.648 70.3075 20.676 70.4275 20.7C70.6595 20.756 70.8755 20.824 71.0755 20.904C71.2835 20.984 71.4595 21.088 71.6035 21.216C71.7555 21.344 71.8715 21.5 71.9515 21.684C72.0395 21.868 72.0835 22.092 72.0835 22.356C72.0835 22.676 72.0155 22.952 71.8795 23.184C71.7435 23.408 71.5675 23.592 71.3515 23.736C71.1355 23.88 70.8875 23.984 70.6075 24.048C70.3355 24.112 70.0595 24.144 69.7795 24.144C69.3075 24.144 68.8915 24.072 68.5315 23.928C68.1795 23.784 67.8635 23.52 67.5835 23.136L68.3995 22.464C68.5755 22.64 68.7715 22.796 68.9875 22.932C69.2035 23.068 69.4675 23.136 69.7795 23.136C69.9155 23.136 70.0515 23.124 70.1875 23.1C70.3315 23.068 70.4555 23.024 70.5595 22.968C70.6715 22.904 70.7595 22.828 70.8235 22.74C70.8955 22.644 70.9315 22.536 70.9315 22.416C70.9315 22.256 70.8795 22.124 70.7755 22.02C70.6795 21.916 70.5595 21.836 70.4155 21.78C70.2795 21.716 70.1315 21.668 69.9715 21.636C69.8195 21.596 69.6835 21.564 69.5635 21.54C69.3315 21.484 69.1115 21.42 68.9035 21.348C68.6955 21.276 68.5115 21.18 68.3515 21.06C68.1915 20.94 68.0635 20.788 67.9675 20.604C67.8715 20.42 67.8235 20.192 67.8235 19.92C67.8235 19.624 67.8835 19.368 68.0035 19.152C68.1315 18.928 68.2955 18.744 68.4955 18.6C68.7035 18.456 68.9355 18.348 69.1915 18.276C69.4555 18.204 69.7195 18.168 69.9835 18.168C70.3675 18.168 70.7355 18.24 71.0875 18.384C71.4395 18.528 71.7195 18.768 71.9275 19.104L71.0875 19.74ZM72.7115 18.312H73.9595L75.6515 22.752H75.6755L77.2835 18.312H78.4475L75.7475 25.224C75.6515 25.472 75.5515 25.696 75.4475 25.896C75.3435 26.104 75.2195 26.28 75.0755 26.424C74.9315 26.568 74.7555 26.68 74.5475 26.76C74.3475 26.84 74.0995 26.88 73.8035 26.88C73.6435 26.88 73.4795 26.868 73.3115 26.844C73.1515 26.828 72.9955 26.788 72.8435 26.724L72.9755 25.74C73.1915 25.828 73.4075 25.872 73.6235 25.872C73.7915 25.872 73.9315 25.848 74.0435 25.8C74.1635 25.76 74.2635 25.696 74.3435 25.608C74.4315 25.528 74.5035 25.432 74.5595 25.32C74.6155 25.208 74.6715 25.08 74.7275 24.936L75.0755 24.036L72.7115 18.312ZM80.2715 21.156C80.2715 21.444 80.3155 21.712 80.4035 21.96C80.4915 22.2 80.6155 22.408 80.7755 22.584C80.9355 22.752 81.1315 22.888 81.3635 22.992C81.5955 23.088 81.8555 23.136 82.1435 23.136C82.4315 23.136 82.6915 23.088 82.9235 22.992C83.1555 22.888 83.3515 22.752 83.5115 22.584C83.6715 22.408 83.7955 22.2 83.8835 21.96C83.9715 21.712 84.0155 21.444 84.0155 21.156C84.0155 20.868 83.9715 20.604 83.8835 20.364C83.7955 20.116 83.6715 19.908 83.5115 19.74C83.3515 19.564 83.1555 19.428 82.9235 19.332C82.6915 19.228 82.4315 19.176 82.1435 19.176C81.8555 19.176 81.5955 19.228 81.3635 19.332C81.1315 19.428 80.9355 19.564 80.7755 19.74C80.6155 19.908 80.4915 20.116 80.4035 20.364C80.3155 20.604 80.2715 20.868 80.2715 21.156ZM79.1195 21.156C79.1195 20.74 79.1955 20.352 79.3475 19.992C79.5075 19.632 79.7235 19.316 79.9955 19.044C80.2675 18.772 80.5875 18.56 80.9555 18.408C81.3235 18.248 81.7195 18.168 82.1435 18.168C82.5675 18.168 82.9635 18.248 83.3315 18.408C83.6995 18.56 84.0195 18.772 84.2915 19.044C84.5635 19.316 84.7755 19.632 84.9275 19.992C85.0875 20.352 85.1675 20.74 85.1675 21.156C85.1675 21.572 85.0875 21.964 84.9275 22.332C84.7755 22.692 84.5635 23.008 84.2915 23.28C84.0195 23.544 83.6995 23.756 83.3315 23.916C82.9635 24.068 82.5675 24.144 82.1435 24.144C81.7195 24.144 81.3235 24.068 80.9555 23.916C80.5875 23.756 80.2675 23.544 79.9955 23.28C79.7235 23.008 79.5075 22.692 79.3475 22.332C79.1955 21.964 79.1195 21.572 79.1195 21.156ZM86.5205 18.312H87.6005V19.188H87.6245C87.7605 18.884 87.9965 18.64 88.3325 18.456C88.6685 18.264 89.0565 18.168 89.4965 18.168C89.7685 18.168 90.0285 18.212 90.2765 18.3C90.5325 18.38 90.7525 18.508 90.9365 18.684C91.1285 18.86 91.2805 19.088 91.3925 19.368C91.5045 19.64 91.5605 19.964 91.5605 20.34V24H90.4805V20.64C90.4805 20.376 90.4445 20.152 90.3725 19.968C90.3005 19.776 90.2045 19.624 90.0845 19.512C89.9645 19.392 89.8245 19.308 89.6645 19.26C89.5125 19.204 89.3525 19.176 89.1845 19.176C88.9605 19.176 88.7525 19.212 88.5605 19.284C88.3685 19.356 88.2005 19.472 88.0565 19.632C87.9125 19.784 87.8005 19.98 87.7205 20.22C87.6405 20.46 87.6005 20.744 87.6005 21.072V24H86.5205V18.312Z" fill="white"/>
<path d="M28.5 10.3125C25.2188 10.3125 22.5938 12.9375 22.5938 16.1531C22.5938 21.0094 27.8437 25.1437 28.1062 25.275C28.2375 25.3406 28.3687 25.4062 28.5 25.4062C28.6313 25.4062 28.7625 25.3406 28.8938 25.275C29.1563 25.0781 34.4062 21.0094 34.4062 16.1531C34.4062 12.9375 31.7812 10.3125 28.5 10.3125ZM28.5 18.1875C27.3844 18.1875 26.5312 17.3344 26.5312 16.2188C26.5312 15.1031 27.3844 14.25 28.5 14.25C29.6156 14.25 30.4688 15.1031 30.4688 16.2188C30.4688 17.3344 29.6156 18.1875 28.5 18.1875Z" fill="white"/>
<path d="M37.6219 27.7688L34.9969 22.5188C34.8656 22.2563 34.6688 22.125 34.4063 22.125H33.6188C32.0438 24.4875 30.075 26.0625 29.6813 26.325C29.3531 26.5875 28.9594 26.7188 28.5 26.7188C28.0406 26.7188 27.6469 26.5875 27.3188 26.325C26.9906 26.0625 24.9563 24.4875 23.3813 22.125H22.5938C22.3313 22.125 22.1344 22.2563 22.0031 22.5188L19.3781 27.7688C19.2469 27.9656 19.3125 28.2281 19.3781 28.425C19.4438 28.6219 19.7719 28.6875 19.9688 28.6875H37.0313C37.2281 28.6875 37.4906 28.5563 37.6219 28.3594C37.7531 28.1625 37.6875 27.9656 37.6219 27.7688Z" fill="white"/>
</g>
</g>
<defs>
<filter id="filter0_d_304_25" x="0" y="0" width="111" height="48" filterUnits="userSpaceOnUse" color-interpolation-filters="sRGB">
<feFlood flood-opacity="0" result="BackgroundImageFix"/>
<feColorMatrix in="SourceAlpha" type="matrix" values="0 0 0 0 0 0 0 0 0 0 0 0 0 0 0 0 0 0 127 0" result="hardAlpha"/>
<feOffset dy="4"/>
<feGaussianBlur stdDeviation="2"/>
<feComposite in2="hardAlpha" operator="out"/>
<feColorMatrix type="matrix" values="0 0 0 0 0 0 0 0 0 0 0 0 0 0 0 0 0 0 0.25 0"/>
<feBlend mode="normal" in2="BackgroundImageFix" result="effect1_dropShadow_304_25"/>
<feBlend mode="normal" in="SourceGraphic" in2="effect1_dropShadow_304_25" result="shape"/>
</filter>
<linearGradient id="paint0_linear_304_25" x1="58.4261" y1="17" x2="68.3217" y2="41.2174" gradientUnits="userSpaceOnUse">
<stop offset="0.25" stop-color="#2273E0"/>
<stop offset="1" stop-color="#367CDC"/>
</linearGradient>
<clipPath id="clip0_304_25">
<rect x="4" width="103" height="40" rx="20" fill="white"/>
</clipPath>
</defs>
</svg>
