<svg width="45" height="45" viewBox="0 0 45 45" fill="none" xmlns="http://www.w3.org/2000/svg">
<circle cx="22.5" cy="22.5" r="22.5" fill="#B2D8D8"/>
<g filter="url(#filter0_d_309_13)">
<path d="M23 32C26.8597 32 30 28.8302 30 24.9315C30 21.2023 23.7018 12.5777 23.4359 12.215C23.3865 12.1485 23.3211 12.0943 23.2452 12.0569C23.1694 12.0195 23.0853 12 23 12C22.9147 12 22.8306 12.0195 22.7548 12.0569C22.6789 12.0943 22.6135 12.1485 22.5641 12.215C22.2911 12.5777 16 21.1887 16 24.9315C16 28.8302 19.1403 32 23 32ZM26.2714 24.9315C26.0942 29.0777 19.8916 29.0777 19.7286 24.9315C19.9058 20.7819 26.0942 20.7853 26.2714 24.9315Z" fill="white"/>
</g>
<defs>
<filter id="filter0_d_309_13" x="12" y="12" width="22" height="28" filterUnits="userSpaceOnUse" color-interpolation-filters="sRGB">
<feFlood flood-opacity="0" result="BackgroundImageFix"/>
<feColorMatrix in="SourceAlpha" type="matrix" values="0 0 0 0 0 0 0 0 0 0 0 0 0 0 0 0 0 0 127 0" result="hardAlpha"/>
<feOffset dy="4"/>
<feGaussianBlur stdDeviation="2"/>
<feComposite in2="hardAlpha" operator="out"/>
<feColorMatrix type="matrix" values="0 0 0 0 0 0 0 0 0 0 0 0 0 0 0 0 0 0 0.25 0"/>
<feBlend mode="normal" in2="BackgroundImageFix" result="effect1_dropShadow_309_13"/>
<feBlend mode="normal" in="SourceGraphic" in2="effect1_dropShadow_309_13" result="shape"/>
</filter>
</defs>
</svg>
