<?xml version="1.0" encoding="iso-8859-1"?>
<!-- Generator: Adobe Illustrator 23.1.1, SVG Export Plug-In . SVG Version: 6.00 Build 0)  -->
<svg version="1.1" id="_x31_-outline-expand" xmlns="http://www.w3.org/2000/svg" xmlns:xlink="http://www.w3.org/1999/xlink"
	 x="0px" y="0px" viewBox="0 0 64 64" style="enable-background:new 0 0 64 64;" xml:space="preserve">
<path d="M22.428,19.134l-1.811-1.045C20.861,17.437,21,16.735,21,16s-0.139-1.437-0.382-2.088l1.811-1.045l0.5,0.866l1.732-1
	l-2-3.465l-1.732,1l0.5,0.866l-1.807,1.043c-0.899-1.085-2.174-1.843-3.621-2.087V8h1V6h-4v2h1v2.09
	c-1.447,0.244-2.722,1.002-3.621,2.087l-1.807-1.043l0.5-0.866l-1.732-1l-2,3.465l1.732,1l0.5-0.866l1.811,1.045
	C9.139,14.563,9,15.265,9,16s0.139,1.437,0.382,2.088l-1.811,1.045l-0.5-0.866l-1.732,1l2,3.465l1.732-1l-0.5-0.866l1.807-1.043
	c0.899,1.085,2.174,1.843,3.621,2.087V24h-1v2h4v-2h-1v-2.09c1.447-0.244,2.722-1.002,3.621-2.087l1.807,1.043l-0.5,0.866l1.732,1
	l2-3.465l-1.732-1L22.428,19.134z M15,20c-2.206,0-4-1.794-4-4s1.794-4,4-4s4,1.794,4,4S17.206,20,15,20z"/>
<path d="M15,2C7.28,2,1,8.28,1,16s6.28,14,14,14s14-6.28,14-14S22.72,2,15,2z M15,28C8.383,28,3,22.617,3,16S8.383,4,15,4
	s12,5.383,12,12S21.617,28,15,28z"/>
<path d="M63,37c0-1.627-0.793-3.061-2-3.974V28c0-0.266-0.105-0.52-0.293-0.707L51.414,18l4.293-4.293
	c0.391-0.391,0.391-1.023,0-1.414L55.414,12L58,9.414l1.293,1.293l1.414-1.414l-8-8l-1.414,1.414L52.586,4L50,6.586l-0.293-0.293
	c-0.391-0.391-1.023-0.391-1.414,0l-13,13C35.105,19.48,35,19.734,35,20v8h-1c-0.552,0-1,0.447-1,1v10c0,0.553,0.448,1,1,1h5v3
	c0,0.553,0.448,1,1,1h4c0.552,0,1-0.447,1-1v-3h5c0.552,0,1-0.447,1-1V29c0-0.553-0.448-1-1-1h-1v-3.586l5,5v4.617
	c-0.62,0.833-1,1.854-1,2.969s0.38,2.136,1,2.969V46H32v2h22v7h-5v-3c0-0.553-0.448-1-1-1H36c-0.552,0-1,0.447-1,1v3h-7
	c-1.654,0-3,1.346-3,3v3c0,0.553,0.448,1,1,1h30c2.757,0,5-2.243,5-5V40.974C62.207,40.061,63,38.627,63,37z M54,5.414L56.586,8
	L54,10.586L51.414,8L54,5.414z M43,42h-2v-2h2V42z M49,38H35v-8h14V38z M37,28v-7.586l12-12L53.586,13l-6.293,6.293
	C47.105,19.48,47,19.734,47,20v8H37z M49,21.586v-1.172l1-1l9,9v3.687C58.677,32.035,58.342,32,58,32c-0.712,0-1.386,0.154-2,0.424
	V29c0-0.266-0.105-0.52-0.293-0.707L49,21.586z M37,53h10v2H37V53z M59,57c0,1.654-1.346,3-3,3H27v-2c0-0.552,0.449-1,1-1h27
	c0.552,0,1-0.447,1-1V41.576C56.614,41.846,57.288,42,58,42c0.342,0,0.677-0.035,1-0.101V57z M58,40c-1.654,0-3-1.346-3-3
	s1.346-3,3-3s3,1.346,3,3S59.654,40,58,40z"/>
<rect x="13" y="32" width="2" height="2"/>
<rect x="13" y="36" width="2" height="2"/>
<rect x="13" y="40" width="2" height="2"/>
<rect x="13" y="44" width="2" height="2"/>
<rect x="13" y="48" width="2" height="2"/>
<rect x="13" y="52" width="2" height="2"/>
<rect x="13" y="56" width="2" height="2"/>
<rect x="17" y="56" width="2" height="2"/>
<rect x="21" y="56" width="2" height="2"/>
<rect x="30" y="10" width="2" height="2"/>
<rect x="34" y="10" width="2" height="2"/>
<rect x="38" y="10" width="2" height="2"/>
</svg>
