<?xml version="1.0" encoding="UTF-8" standalone="no"?> <svg xmlns="http://www.w3.org/2000/svg" viewBox="0 0 64 64"><title>1</title><g id="Layer_98" data-name="Layer 98"><path d="M61.92,37.45l-6-21A2,2,0,0,0,54,15H49.63a2,2,0,0,0,0,4h2.87l4.86,17h-2a11,11,0,0,0-20.56-3.07,7.27,7.27,0,0,0-5.51,0A11,11,0,0,0,8.69,36h-2l4.86-17h2.87a2,2,0,0,0,0-4H10a2,2,0,0,0-1.92,1.45l-6,21A2,2,0,0,0,4,40H8.69a11,11,0,0,0,21.74-3.18,3.37,3.37,0,0,1,3.14,0A11,11,0,0,0,55.31,40H60a2,2,0,0,0,1.92-2.55ZM19.49,45a7,7,0,1,1,7-7A7,7,0,0,1,19.49,45Zm25,0a7,7,0,1,1,7-7A7,7,0,0,1,44.51,45Z"/></g></svg>