<?xml version="1.0" encoding="UTF-8" standalone="no"?><svg xmlns="http://www.w3.org/2000/svg" xmlns:xlink="http://www.w3.org/1999/xlink" version="1.1" id="Layer_1" x="0px" y="0px" viewBox="0 0 40 40" xml:space="preserve" width="40" height="40"><path d="M23 16.413c0-1.486-1.196-2.694-2.667-2.694h-2.667c-1.47 0-2.667 1.209-2.667 2.694v12.545C15 31.187 16.794 33 19 33c2.206 0 4-1.813 4-4.041V16.413z" fill="#8BB7F0"/><path fill="#4E7AB5" d="M23 19h-1v14h1V19z"/><path fill="#4E7AB5" d="M15 18h-1v12h1V18z"/><path d="M20.429 34.139c-1.339 0-2.631-.572-3.572-1.575v-.503a4.566 4.566 0 0 0 7.143 0v.503c-.94 1.002-2.232 1.575-3.571 1.575z" fill="#8BB7F0"/><path d="M24.5 29.21a4.075 4.075 0 0 1-4.071 4.071 4.075 4.075 0 0 1-4.071-4.071v3.546c.997 1.143 2.445 1.882 4.071 1.882s3.074-.74 4.071-1.882V29.21z" fill="#4E7AB5"/><path d="M14.5 18.5V16c0-1.93 1.57-3.5 3.5-3.5h2c1.93 0 3.5 1.57 3.5 3.5v1.708l-1 .563v.229h-8z" fill="#8BB7F0"/><path d="M20 13c1.654 0 3 1.346 3 3v1.415l-.49.276-.51.287V18h-7v-2c0-1.654 1.346-3 3-3h2m0-1h-2c-2.2 0-4 1.8-4 4v3h9v-.438L24 18v-2c0-2.2-1.8-4-4-4z" fill="#4E7AB5"/><circle cx="19" cy="7" r="3.5" fill="#FFEEA3"/><path d="M19 4c1.654 0 3 1.346 3 3s-1.346 3-3 3-3-1.346-3-3 1.346-3 3-3m0-1a4 4 0 1 0 0 8 4 4 0 0 0 0-8z" fill="#BA9B48"/><path d="M1.5 36.5V32c0-.827.673-1.5 1.5-1.5h4c.827 0 1.5.673 1.5 1.5v.5H36c1.378 0 2.5 1.121 2.5 2.5v1.5h-37z" fill="#DCD5F2"/><path d="M7 31c.551 0 1 .449 1 1v1h28c1.103 0 2 .897 2 2v1H2v-4c0-.551.449-1 1-1h4m0-1H3c-1.1 0-2 .9-2 2v5h38v-2c0-1.65-1.35-3-3-3H9a2 2 0 0 0-2-2z" fill="#8B75A1"/><circle cx="5" cy="27" r="3.5" fill="#FFEEA3"/><path d="M5 24c1.654 0 3 1.346 3 3s-1.346 3-3 3-3-1.346-3-3 1.346-3 3-3m0-1a4 4 0 1 0 0 8 4 4 0 0 0 0-8z" fill="#BA9B48"/><path d="M12.5 32.5c-1.654 0-3-1.346-3-3s1.346-3 3-3h10.733l3.354-4H33c.827 0 1.5.673 1.5 1.5s-.673 1.5-1.5 1.5h-5.309l-2 4H35c.827 0 1.5.673 1.5 1.5s-.673 1.5-1.5 1.5H12.5z" fill="#C2E8FF"/><path d="M33 23c.551 0 1 .449 1 1s-.449 1-1 1h-5.618l-.276.553-1.5 3L24.882 30H35c.551 0 1 .449 1 1s-.449 1-1 1H12.5c-1.378 0-2.5-1.121-2.5-2.5s1.122-2.5 2.5-2.5h10.967l.3-.357L26.821 23H33m0-1h-6.646L23 26H12.5C10.575 26 9 27.575 9 29.5s1.575 3.5 3.5 3.5H35c1.1 0 2-.9 2-2s-.9-2-2-2h-8.5l1.5-3h5c1.1 0 2-.9 2-2s-.9-2-2-2z" fill="#4E7AB5"/><path d="M13.5 29.5H20c.827 0 1.5.673 1.5 1.5s-.673 1.5-1.5 1.5h-7" fill="none" stroke="#4E7AB5" stroke-linecap="round" stroke-miterlimit="10"/><g><path fill="#8BB7F0" d="M19 18h3v5h-3z"/></g><path d="M18.469 17.578l1.333 2.229 4.703 2.045c.407.14.689.382.853.708a1.3 1.3 0 0 1 .067 1.029 1.392 1.392 0 0 1-1.32.911c-.152 0-.303-.024-.448-.072l-5.993-2.488L14.547 18" fill="#8BB7F0" stroke="#4E7AB5" stroke-linecap="round" stroke-miterlimit="10"/><path d="M22.376 13.412l9.471 7.307c.353.229.589.573.674.975a1.525 1.525 0 0 1-1.152 1.815 1.526 1.526 0 0 1-1.182-.205L22.5 17.821l-2.113-2.659 1.989-1.75z" fill="#8BB7F0"/><path d="M22.278 13.361l9.569 7.358c.353.229.589.573.674.975a1.525 1.525 0 0 1-1.152 1.815 1.526 1.526 0 0 1-1.182-.205L22.5 17.821" fill="#8BB7F0" stroke="#4E7AB5" stroke-linecap="round" stroke-miterlimit="10"/><path fill="#4E7AB5" d="M22 18.344h1v2.885h-1z"/><metadata><rdf:RDF xmlns:rdf="http://www.w3.org/1999/02/22-rdf-syntax-ns#" xmlns:rdfs="http://www.w3.org/2000/01/rdf-schema#" xmlns:dc="http://purl.org/dc/elements/1.1/"><rdf:Description about="https://iconscout.com/legal#licenses" dc:title="physical,therapy" dc:description="physical,therapy" dc:publisher="Iconscout" dc:date="2017-10-29" dc:format="image/svg+xml" dc:language="en"><dc:creator><rdf:Bag><rdf:li>Icons8</rdf:li></rdf:Bag></dc:creator></rdf:Description></rdf:RDF></metadata></svg>